#N canvas 511 171 958 989 12;
#X obj 25 22 inlet;
#X obj 30 607 outlet~;
#X floatatom 25 46 9 0 0 0 - - - 0;
#X obj 26 327 vline~;
#X msg 26 303 \$1 \, \$2 \$3;
#X obj 25 70 t f f;
#X obj 26 278 pack f f f, f 13;
#X obj 70 221 +;
#X obj 137 21 r grain-dur;
#X floatatom 114 46 5 0 0 0 - - - 0;
#X obj 137 68 * 44.1;
#X floatatom 137 92 5 0 0 0 - - - 0;
#X obj 248 294 bng 19 250 50 0 empty empty empty 0 -10 0 12 #fcfcfc #000000 #000000;
#X obj 248 337 f;
#X obj 274 293 - 20;
#X floatatom 274 240 5 0 0 0 - - - 0;
#X obj 26 383 *~;
#X floatatom 248 361 5 0 0 0 - - - 0;
#X obj 30 572 *~ 1;
#X floatatom 70 245 5 0 0 0 - - - 0;
#X floatatom 114 245 5 0 0 0 - - - 0;
#X msg 248 414 1 \, 0 20 \$1;
#X obj 26 352 tabread4~ ticks;
#X obj 248 384 abs;
#X obj 114 221 / 100;
#X connect 0 0 2 0;
#X connect 2 0 5 0;
#X connect 3 0 22 0;
#X connect 4 0 3 0;
#X connect 4 0 12 0;
#X connect 5 0 6 0;
#X connect 5 1 7 0;
#X connect 6 0 4 0;
#X connect 7 0 19 0;
#X connect 8 0 9 0;
#X connect 9 0 10 0;
#X connect 9 0 24 0;
#X connect 10 0 11 0;
#X connect 11 0 7 1;
#X connect 12 0 13 0;
#X connect 13 0 17 0;
#X connect 14 0 13 0;
#X connect 15 0 14 0;
#X connect 16 0 18 0;
#X connect 17 0 23 0;
#X connect 18 0 1 0;
#X connect 19 0 6 1;
#X connect 20 0 6 2;
#X connect 21 0 16 1;
#X connect 22 0 16 0;
#X connect 23 0 21 0;
#X connect 24 0 15 0;
#X connect 24 0 20 0;
