#N canvas 831 284 598 508 12;
#X floatatom 30 109 5 0 0 0 - - - 0;
#X floatatom 30 388 6 0 0 0 - - - 16;
#X text 123 194 A;
#X text 175 194 B;
#X text 314 196 A1;
#X text 271 195 B1;
#X text 28 11 // map expr;
#X text 222 194 A;
#X text 64 195 input;
#X floatatom 118 109 5 0 0 0 - - - 0;
#X floatatom 164 109 5 0 0 0 - - - 0;
#X floatatom 345 108 5 0 0 0 - - - 0;
#X floatatom 286 108 5 0 0 0 - - - 0;
#X text 126 84 A;
#X text 167 83 B;
#X text 290 84 A1;
#X text 354 83 B1;
#X obj 30 45 inlet;
#X obj 118 44 inlet;
#X obj 164 44 inlet;
#X obj 345 42 inlet;
#X obj 286 42 inlet;
#X obj 30 173 expr ($f1 - $f2) / ($f3 - $f2) * ($f4 - $f5) + $f5 \;, f 52;
#X obj 30 418 outlet;
#X text 365 194 A1;
#X floatatom 62 283 5 0 0 0 - - - 0;
#X floatatom 30 251 5 0 0 0 - - - 0;
#X obj 30 283 max;
#X floatatom 62 328 5 0 0 0 - - - 0;
#X obj 30 328 min;
#X obj 106 281 min;
#X obj 106 326 max;
#X connect 0 0 22 0;
#X connect 1 0 23 0;
#X connect 9 0 22 1;
#X connect 10 0 22 2;
#X connect 11 0 22 3;
#X connect 11 0 30 1;
#X connect 11 0 31 1;
#X connect 12 0 22 4;
#X connect 12 0 30 0;
#X connect 12 0 31 0;
#X connect 17 0 0 0;
#X connect 18 0 9 0;
#X connect 19 0 10 0;
#X connect 20 0 11 0;
#X connect 21 0 12 0;
#X connect 22 0 26 0;
#X connect 25 0 27 1;
#X connect 26 0 27 0;
#X connect 27 0 29 0;
#X connect 28 0 29 1;
#X connect 29 0 1 0;
#X connect 30 0 25 0;
#X connect 31 0 28 0;
