#N canvas 84 0 766 514 12;
#N canvas 203 88 1458 983 piece01 0;
#X obj 4 6 cnv 19 1430 1000 empty empty empty 20 12 0 12 #980a0a #404040 0;
#X obj 323 340 mtof;
#X obj 364 339 mtof;
#X obj 460 340 mtof;
#X obj 323 363 osc~;
#X obj 364 363 osc~;
#X obj 460 363 osc~;
#X obj 343 581 *~;
#X obj 382 579 hsl 162 19 0 1 0 0 empty empty empty -2 -10 0 12 #fcfcfc #000000 #000000 0 1;
#X msg 478 257 6;
#X msg 513 257 7;
#X msg 548 257 8;
#X obj 460 316 + 7;
#X obj 364 315 + 4;
#X msg 382 257 3;
#X msg 415 257 4;
#X obj 478 236 select 0 1 2, f 13;
#X obj 382 236 select 0 1;
#X obj 478 197 hradio 19 1 0 3 empty empty empty 0 -10 0 12 #fcfcfc #000000 #000000 0;
#X obj 382 198 hradio 19 1 0 2 empty empty empty 0 -10 0 12 #fcfcfc #000000 #000000 0;
#X msg 146 245 50;
#X msg 198 247 55;
#X msg 165 218 58;
#X obj 323 293 f;
#X obj 364 387 *~ 0.35;
#X obj 460 387 *~ 0.25;
#X obj 139 153 random 3;
#X obj 139 42 tgl 19 0 empty empty empty 0 -10 0 12 #fcfcfc #000000 #000000 0 1;
#X obj 139 117 metro 3000;
#X obj 250 171 + 1000;
#X floatatom 250 195 5 0 0 0 - - - 0;
#X obj 382 152 random 2;
#X obj 478 153 random 3;
#X obj 382 85 metro 6000;
#X obj 478 86 random 3000;
#X msg 108 272 61;
#X obj 123 181 select 0 1 2 3;
#X msg 714 192 62;
#X obj 734 270 mtof;
#X obj 734 294 phasor~ 2;
#X obj 734 318 lop~ 200;
#X msg 798 194 74;
#X msg 756 192 65;
#X obj 729 120 random 3;
#X obj 729 144 select 0 1 2;
#X obj 729 75 metro 8000;
#X obj 823 366 vline~;
#X msg 823 329 0 \, 1 100 \, 0 2000 100;
#X obj 733 367 *~;
#X obj 1052 77 f;
#X obj 1087 77 + 1;
#X floatatom 1052 101 5 0 0 0 - - - 0;
#X floatatom 1052 201 5 0 0 0 - - - 0;
#X obj 1052 226 select 0 1 2 3;
#X msg 1114 289 74;
#X obj 1052 250 bng 19 250 50 0 empty empty empty 0 -10 0 12 #fcfcfc #000000 #000000;
#X obj 1074 250 bng 19 250 50 0 empty empty empty 0 -10 0 12 #fcfcfc #000000 #000000;
#X obj 1097 250 bng 19 250 50 0 empty empty empty 0 -10 0 12 #fcfcfc #000000 #000000;
#X obj 1122 250 bng 19 250 50 0 empty empty empty 0 -10 0 12 #fcfcfc #000000 #000000;
#X obj 1096 334 mtof;
#X obj 1096 413 *~;
#X obj 1226 394 vline~;
#X obj 1294 370 bng 19 250 50 0 empty empty empty 0 -10 0 12 #fcfcfc #000000 #000000;
#X obj 1287 249 bng 19 250 50 0 empty empty empty 0 -10 0 12 #fcfcfc #000000 #000000;
#X obj 1125 53 tgl 19 0 empty empty empty 0 -10 0 12 #fcfcfc #000000 #000000 0 1;
#X obj 619 575 *~;
#X obj 661 575 hsl 162 19 0 1 0 0 empty empty empty -2 -10 0 12 #fcfcfc #000000 #000000 0 1;
#X msg 1039 286 65;
#X obj 1096 358 phasor~ 5;
#X msg 1152 287 50;
#X obj 1096 437 lop~ 300;
#X msg 1075 286 55;
#X obj 427 913 s~ RedL;
#X obj 586 911 s~ RedR;
#X text 632 873 R;
#X text 475 873 L;
#X obj 45 42 r start-all;
#X obj 1314 204 spigot;
#X obj 1279 182 r start-all;
#X obj 576 497 r redMain;
#X obj 48 670 delwrite~ low 800;
#X obj 126 738 *~ 0.2;
#X obj 684 678 delwrite~ notes 1000;
#X obj 250 145 random 2500;
#X obj 791 598 mapGea, f 26;
#X msg 904 575 0;
#X msg 944 575 1;
#X floatatom 791 622 5 0 0 0 - - - 0;
#X obj 875 548 loadbang;
#X floatatom 1164 201 5 0 0 0 - - - 0;
#X obj 1164 250 bng 19 250 50 0 empty empty empty 0 -10 0 12 #fcfcfc #000000 #000000;
#X obj 1186 250 bng 19 250 50 0 empty empty empty 0 -10 0 12 #fcfcfc #000000 #000000;
#X obj 1210 250 bng 19 250 50 0 empty empty empty 0 -10 0 12 #fcfcfc #000000 #000000;
#X obj 1097 107 vradio 19 1 0 2 empty empty empty 0 -10 0 12 #fcfcfc #000000 #000000 0;
#X msg 866 575 0.9;
#X msg 828 575 0.6;
#X obj 1052 177 counter 1 0 3;
#X obj 1287 226 delay 7000;
#X obj 1237 250 bng 19 250 50 0 empty empty empty 0 -10 0 12 #fcfcfc #000000 #000000;
#X obj 1251 113 random 4;
#X obj 426 874 *~ 1.3;
#X obj 586 874 *~ 1.3;
#X obj 775 747 *~ 0.25;
#X msg 1226 370 1 \, 0 500;
#X obj 126 761 *~ 0.7;
#X obj 126 716 *~ 0.4;
#X obj 55 692 delread~ low 600;
#X obj 698 700 delread~ notes 700;
#X obj 275 736 *~ 0.2;
#X obj 197 668 delwrite~ low2 1000;
#X obj 204 690 delread~ low2 900;
#X obj 275 714 *~ 0.7;
#X obj 275 759 min~;
#X obj 275 783 *~ 0.2;
#X obj 1326 268 random 2500;
#X floatatom 1326 316 5 0 0 0 - - - 0;
#X obj 1326 292 + 4800;
#X obj 1096 461 *~ 1.8;
#X floatatom 1166 153 5 0 0 0 - - - 0;
#X obj 1164 226 select 0 1 2 3;
#X obj 1052 53 metro 150;
#X obj 1052 125 % 4;
#X obj 1126 106 random 2;
#X obj 785 723 *~ 0.4;
#X obj 782 770 *~ 0.5;
#X obj 478 110 + 4000;
#X obj 345 523 *~ 0.2;
#X obj 734 408 *~ 1;
#X obj 116 483 snapshot~;
#X floatatom 116 507 14 0 0 0 - - - 0;
#X obj 97 419 tgl 19 0 empty empty empty 0 -10 0 12 #fcfcfc #000000 #000000 0 1;
#X obj 116 530 s spectrum;
#X obj 98 448 metro 10;
#X msg 1181 793 74;
#X msg 1106 790 65;
#X msg 1219 791 50;
#X msg 1142 790 55;
#X connect 1 0 4 0;
#X connect 2 0 5 0;
#X connect 3 0 6 0;
#X connect 4 0 126 0;
#X connect 5 0 24 0;
#X connect 6 0 25 0;
#X connect 7 0 80 0;
#X connect 7 0 100 0;
#X connect 7 0 101 0;
#X connect 7 0 109 0;
#X connect 8 0 7 1;
#X connect 9 0 12 1;
#X connect 10 0 12 1;
#X connect 11 0 12 1;
#X connect 12 0 3 0;
#X connect 13 0 2 0;
#X connect 14 0 13 1;
#X connect 15 0 13 1;
#X connect 16 0 9 0;
#X connect 16 1 10 0;
#X connect 16 2 11 0;
#X connect 17 0 14 0;
#X connect 17 1 15 0;
#X connect 18 0 16 0;
#X connect 19 0 17 0;
#X connect 20 0 23 0;
#X connect 21 0 23 0;
#X connect 22 0 23 0;
#X connect 23 0 13 0;
#X connect 23 0 12 0;
#X connect 23 0 1 0;
#X connect 24 0 126 0;
#X connect 25 0 126 0;
#X connect 26 0 36 0;
#X connect 27 0 28 0;
#X connect 27 0 33 0;
#X connect 27 0 45 0;
#X connect 27 0 120 0;
#X connect 28 0 26 0;
#X connect 28 0 83 0;
#X connect 29 0 30 0;
#X connect 30 0 28 1;
#X connect 31 0 19 0;
#X connect 32 0 18 0;
#X connect 33 0 34 0;
#X connect 33 0 31 0;
#X connect 33 0 32 0;
#X connect 34 0 125 0;
#X connect 35 0 23 0;
#X connect 36 0 20 0;
#X connect 36 1 22 0;
#X connect 36 2 21 0;
#X connect 36 3 35 0;
#X connect 37 0 38 0;
#X connect 38 0 39 0;
#X connect 39 0 40 0;
#X connect 40 0 48 0;
#X connect 41 0 38 0;
#X connect 42 0 38 0;
#X connect 43 0 44 0;
#X connect 44 0 37 0;
#X connect 44 1 42 0;
#X connect 44 2 41 0;
#X connect 45 0 43 0;
#X connect 45 0 47 0;
#X connect 46 0 48 1;
#X connect 47 0 46 0;
#X connect 48 0 127 0;
#X connect 49 0 50 0;
#X connect 49 0 51 0;
#X connect 50 0 49 1;
#X connect 51 0 121 0;
#X connect 52 0 53 0;
#X connect 52 0 62 0;
#X connect 53 0 55 0;
#X connect 53 1 56 0;
#X connect 53 2 57 0;
#X connect 53 3 58 0;
#X connect 54 0 59 0;
#X connect 55 0 67 0;
#X connect 56 0 71 0;
#X connect 57 0 54 0;
#X connect 58 0 69 0;
#X connect 59 0 68 0;
#X connect 60 0 70 0;
#X connect 61 0 60 1;
#X connect 62 0 103 0;
#X connect 63 0 77 0;
#X connect 63 0 114 0;
#X connect 63 0 122 0;
#X connect 64 0 120 0;
#X connect 65 0 100 0;
#X connect 65 0 101 0;
#X connect 65 0 82 0;
#X connect 66 0 65 1;
#X connect 67 0 59 0;
#X connect 68 0 60 0;
#X connect 69 0 59 0;
#X connect 70 0 117 0;
#X connect 71 0 59 0;
#X connect 76 0 27 0;
#X connect 76 0 130 0;
#X connect 77 0 64 0;
#X connect 78 0 77 1;
#X connect 79 0 8 0;
#X connect 79 0 84 0;
#X connect 83 0 29 0;
#X connect 84 0 87 0;
#X connect 85 0 84 3;
#X connect 86 0 84 4;
#X connect 87 0 66 0;
#X connect 88 0 86 0;
#X connect 88 0 85 0;
#X connect 88 0 94 0;
#X connect 88 0 95 0;
#X connect 89 0 119 0;
#X connect 93 0 96 1;
#X connect 94 0 84 2;
#X connect 95 0 84 1;
#X connect 96 0 52 0;
#X connect 97 0 63 0;
#X connect 98 0 64 0;
#X connect 98 0 97 0;
#X connect 100 0 72 0;
#X connect 101 0 73 0;
#X connect 103 0 61 0;
#X connect 104 0 100 0;
#X connect 104 0 101 0;
#X connect 104 0 82 0;
#X connect 105 0 80 0;
#X connect 106 0 81 0;
#X connect 106 0 104 0;
#X connect 106 0 105 0;
#X connect 107 0 102 0;
#X connect 107 0 123 0;
#X connect 107 0 124 0;
#X connect 110 0 108 0;
#X connect 110 0 111 0;
#X connect 110 0 112 0;
#X connect 111 0 109 0;
#X connect 112 0 113 0;
#X connect 113 0 100 0;
#X connect 113 0 101 0;
#X connect 114 0 116 0;
#X connect 116 0 97 1;
#X connect 116 0 115 0;
#X connect 117 0 65 0;
#X connect 117 0 128 0;
#X connect 118 0 89 0;
#X connect 119 0 90 0;
#X connect 119 1 91 0;
#X connect 119 2 92 0;
#X connect 119 3 98 0;
#X connect 120 0 49 0;
#X connect 120 0 99 0;
#X connect 121 0 118 0;
#X connect 121 0 96 0;
#X connect 122 0 93 0;
#X connect 123 0 82 0;
#X connect 124 0 100 0;
#X connect 124 0 101 0;
#X connect 124 0 109 0;
#X connect 125 0 33 1;
#X connect 126 0 7 0;
#X connect 127 0 82 0;
#X connect 127 0 126 0;
#X connect 128 0 129 0;
#X connect 129 0 131 0;
#X connect 130 0 132 0;
#X connect 132 0 128 0;
#X restore 9 7 pd piece01;
#N canvas -545 703 1920 1146 piece02 0;
#X obj 1 6 cnv 19 1880 2000 empty empty empty 20 12 0 12 #a26522 #404040 0;
#X obj 491 1164 mtof;
#X floatatom 1275 160 5 0 0 0 - - - 0;
#X msg 1275 233 0;
#X msg 1419 233 -1;
#X floatatom 1419 210 5 0 0 0 - - - 0;
#X obj 1275 136 % 12;
#X obj 1243 269 +;
#X floatatom 1243 292 5 0 0 0 - - - 0;
#X obj 173 171 tgl 19 0 empty empty empty 0 -10 0 12 #fcfcfc #000000 #000000 0 1;
#X floatatom 1555 165 5 0 0 0 - - - 0;
#X msg 1555 238 0;
#X msg 1699 235 -1;
#X floatatom 1699 212 5 0 0 0 - - - 0;
#X obj 1555 141 % 12;
#X obj 1523 274 +;
#X floatatom 1523 297 5 0 0 0 - - - 0;
#X obj 1555 189 select 0 2 3 5 7 9 10;
#X obj 1523 107 r note;
#X obj 1243 107 r note;
#X obj 1243 315 s major;
#X obj 1523 320 s dorico;
#X obj 310 1061 r major;
#X obj 310 1085 spigot;
#X obj 365 1061 tgl 19 0 empty empty empty 0 -10 0 12 #fcfcfc #000000 #000000 0 1;
#X obj 401 1086 spigot;
#X obj 463 1062 tgl 19 0 empty empty empty 0 -10 0 12 #fcfcfc #000000 #000000 0 1;
#X obj 401 1062 r dorico;
#X floatatom 1277 407 5 0 0 0 - - - 0;
#X msg 1277 480 0;
#X msg 1421 477 -1;
#X floatatom 1421 454 5 0 0 0 - - - 0;
#X obj 1277 383 % 12;
#X obj 1245 516 +;
#X floatatom 1245 539 5 0 0 0 - - - 0;
#X obj 1245 349 r note;
#X obj 1277 431 select 0 2 3 5 7 8 10;
#X obj 1245 562 s minor;
#X obj 491 1086 spigot;
#X obj 546 1062 tgl 19 0 empty empty empty 0 -10 0 12 #fcfcfc #000000 #000000 0 1;
#X obj 491 1062 r minor;
#X obj 172 241 f;
#X obj 203 241 + 1;
#X obj 1275 184 select 0 2 4 5 7 9 10;
#X obj 221 669 f;
#X floatatom 221 693 5 0 0 0 - - - 0;
#X obj 547 415 s note;
#X floatatom 221 774 5 0 0 0 - - - 0;
#X obj 491 1251 freeverb~;
#X msg 116 1355 wet \$1;
#X msg 202 1354 dry \$1;
#X obj 119 1306 hsl 128 15 0 1 0 0 empty empty empty -2 -8 0 10 #ffe3c6 #000000 #000000 0 1;
#N canvas 1 80 450 300 inv 0;
#X obj 154 69 inlet;
#X obj 154 179 outlet;
#X msg 154 124 1;
#X obj 154 97 t b f;
#X obj 154 151 -;
#X connect 0 0 3 0;
#X connect 2 0 4 0;
#X connect 3 0 2 0;
#X connect 3 1 4 1;
#X connect 4 0 1 0;
#X restore 202 1333 pd inv;
#X text 107 1290 dry;
#X text 232 1289 wet;
#X obj 456 957 hradio 19 1 0 5 empty empty empty 0 -10 0 12 #ffe3c6 #000000 #000000 0;
#X msg 413 1020 1;
#X msg 414 1043 0;
#X msg 452 1020 1;
#X msg 453 1043 0;
#X msg 490 1020 1;
#X msg 491 1043 0;
#X obj 172 271 spigot;
#X obj 221 271 tgl 19 0 empty empty empty 0 -10 0 12 #fcfcfc #000000 #000000 0 1;
#X floatatom 1556 407 5 0 0 0 - - - 0;
#X msg 1556 480 0;
#X msg 1700 477 -1;
#X floatatom 1700 454 5 0 0 0 - - - 0;
#X obj 1556 383 % 12;
#X obj 1524 516 +;
#X floatatom 1524 539 5 0 0 0 - - - 0;
#X obj 1524 349 r note;
#X obj 1556 431 select 0 1 3 5 6 8 10;
#X obj 1524 562 s locrio;
#X obj 578 1086 spigot;
#X obj 640 1062 tgl 19 0 empty empty empty 0 -10 0 12 #fcfcfc #000000 #000000 0 1;
#X obj 578 1062 r locrio;
#X msg 530 1020 1;
#X msg 531 1043 0;
#X floatatom 1560 660 5 0 0 0 - - - 0;
#X msg 1560 733 0;
#X msg 1704 730 -1;
#X floatatom 1704 707 5 0 0 0 - - - 0;
#X obj 1560 636 % 12;
#X obj 1528 769 +;
#X floatatom 1528 792 5 0 0 0 - - - 0;
#X obj 1528 602 r note;
#X obj 1560 684 select 0 2 4 6 7 9 11;
#X obj 1528 815 s lidio;
#X obj 668 1086 spigot;
#X obj 723 1062 tgl 19 0 empty empty empty 0 -10 0 12 #fcfcfc #000000 #000000 0 1;
#X obj 668 1062 r lidio;
#X msg 570 1020 1;
#X msg 571 1043 0;
#X obj 173 202 metro 250;
#X obj 233 241 % 9;
#X obj 221 716 + 48;
#X obj 566 1442 vline~;
#X obj 566 1466 *~;
#X obj 566 1490 *~;
#X obj 491 1510 *~;
#X floatatom 566 1389 5 0 0 0 - - - 0;
#X obj 642 1308 bng 19 250 50 0 empty empty empty 0 -10 0 12 #fcfcfc #000000 #000000;
#X obj 412 988 sel 0 1 2 3 4, f 26;
#X obj 470 929 random 5;
#X obj 490 135 metro 5000;
#X obj 221 744 + 0;
#X obj 808 1357 spigot;
#X obj 856 1357 r start-all;
#X obj 173 38 r start-all;
#X obj 453 1890 s~ orangeL;
#X obj 539 1889 s~ orangeR;
#X obj 526 182 + 100;
#X text 1239 59 // Scales;
#X obj 523 669 f;
#X floatatom 523 693 5 0 0 0 - - - 0;
#X floatatom 523 774 5 0 0 0 - - - 0;
#X obj 473 594 sel 0 1 2 3 4 5 6 7 8;
#X obj 523 716 + 48;
#X obj 523 744 + 0;
#X obj 207 396 vradio 15 1 0 3 empty empty empty 0 -8 0 10 #ffe3c6 #000000 #000000 0;
#X floatatom 171 576 5 0 0 0 - - - 0;
#X obj 171 455 cyclone/counter 2 0 7;
#X obj 171 594 sel 0 1 2 3 4 5 6 7;
#X obj 207 367 random 3;
#X msg 414 631 2;
#X msg 479 630 2;
#X msg 544 630 2;
#X floatatom 484 257 5 0 0 0 - - - 0;
#X obj 536 299 bng 19 250 50 0 empty empty empty 0 -10 0 12 #fcfcfc #000000 #000000;
#X obj 484 300 bng 19 250 50 0 empty empty empty 0 -10 0 12 #fcfcfc #000000 #000000;
#X obj 448 376 spigot;
#X obj 472 343 tgl 19 0 empty empty empty 0 -10 0 12 #fcfcfc #000000 #000000 0 1;
#X obj 523 375 spigot;
#X obj 547 342 tgl 19 0 empty empty empty 0 -10 0 12 #fcfcfc #000000 #000000 0 1;
#X msg 446 324 1;
#X msg 480 324 0;
#X msg 526 324 1;
#X msg 561 324 0;
#X obj 498 159 random 50;
#X text 495 555 // melodia 2;
#X text 192 557 // melodia 1;
#X msg 608 630 6;
#X obj 824 669 f;
#X floatatom 824 693 5 0 0 0 - - - 0;
#X floatatom 824 774 5 0 0 0 - - - 0;
#X obj 774 594 sel 0 1 2 3 4 5 6 7 8;
#X obj 824 716 + 48;
#X obj 824 744 + 0;
#X obj 484 280 select 0 1, f 17;
#X obj 589 298 bng 19 250 50 0 empty empty empty 0 -10 0 12 #fcfcfc #000000 #000000;
#X msg 612 324 1;
#X msg 647 324 0;
#X obj 590 377 spigot;
#X obj 633 343 tgl 19 0 empty empty empty 0 -10 0 12 #fcfcfc #000000 #000000 0 1;
#X obj 1303 1019 bng 19 250 50 0 empty empty empty 0 -10 0 12 #fcfcfc #000000 #000000;
#X obj 1303 1073 readsf~;
#X obj 1303 1114 *~;
#X msg 1303 1049 open kick.wav \, 1;
#X obj 88 240 s kick;
#X obj 1303 965 tgl 19 0 empty empty empty 0 -10 0 12 #fcfcfc #000000 #000000 0 1;
#X obj 1017 201 + 150;
#X obj 1585 1081 readsf~;
#X obj 1585 1113 *~;
#X obj 1457 1095 vline~;
#X msg 1585 1038 open hihat.wav \, 1;
#X msg 1457 1071 2 10 \, 0 500 10;
#X text 799 556 // melodia 3;
#X obj 647 1668 delread~ oh 400;
#X obj 318 1721 *~ 0.5;
#X obj 648 1713 *~ 0.5;
#X msg 512 630 5;
#X msg 447 631 -5;
#X msg 641 630 7;
#X obj 452 1853 *~ 0.5;
#X obj 540 1852 *~ 0.5;
#X obj 116 1247 mapGea, f 23;
#X floatatom 116 1271 5 0 0 0 - - - 0;
#X msg 139 1221 0.65;
#X obj 231 1193 loadbang;
#X obj 116 1193 r orangeMain;
#X msg 219 1221 1;
#X msg 251 1221 0;
#X text 1531 924 // play snare and drums;
#X obj 485 1751 delwrite~ oh 800;
#X msg 575 630 -5;
#X msg 748 629 19;
#X msg 813 629 17;
#X msg 909 628 2;
#X obj 469 905 metro 2000;
#X msg 715 631 2;
#X msg 780 628 2;
#X msg 845 628 2;
#X msg 876 628 26;
#X msg 941 628 14;
#X obj 808 1332 del 5000;
#X obj 812 1272 random 2000;
#X obj 812 1295 + 5000;
#X floatatom 861 1296 5 0 0 0 - - - 0;
#X obj 641 1370 line 0 50;
#X obj 729 1332 bng 19 250 50 0 empty empty empty 0 -10 0 12 #fcfcfc #000000 #000000;
#X msg 210 630 4;
#X msg 242 630 6;
#X obj 491 1196 phasor~;
#X obj 1606 1164 hip~ 5000;
#X obj 1546 1140 *~ 0.05;
#X obj 316 1674 delread~ oh 600;
#X obj 317 1698 *~ 0.7;
#X obj 649 1689 *~ 0.7;
#X msg 306 631 4;
#X msg 177 630 17;
#X msg 115 633 7;
#X obj 729 1313 delay 800;
#X obj 490 1584 lop~ 1000;
#X msg 339 631 9;
#X obj 1303 1139 *~ 0.02;
#X text 535 1344 // envelope;
#X msg 566 1414 \$1 100 \, 0 1500 100;
#X obj 1409 1641 mtof;
#X obj 1470 1639 mtof;
#X obj 1536 1640 mtof;
#X obj 1470 1663 osc~;
#X obj 1536 1616 + 7;
#X obj 1470 1615 + 4;
#X obj 1409 1582 f;
#X obj 1470 1687 *~ 0.35;
#X obj 1536 1687 *~ 0.25;
#X obj 1313 1489 random 4;
#X obj 1313 1513 select 0 1 2 3;
#X obj 1313 1410 tgl 19 0 empty empty empty 0 -10 0 12 #ffe3c6 #000000 #000000 0 1;
#X obj 1408 1736 min~;
#X obj 1536 1663 phasor~;
#X obj 1409 1664 osc~;
#X obj 1313 1455 metro 5000;
#X obj 1393 1429 random 2000;
#X msg 1487 1579 3;
#X msg 1520 1579 4;
#X msg 1576 1579 6;
#X msg 1611 1579 7;
#X msg 1644 1578 8;
#X msg 1679 1578 9;
#X obj 1576 1543 select 0 1 2 3;
#X obj 1487 1542 select 0 1;
#X obj 1576 1517 random 4;
#X obj 1487 1517 metro 2;
#X obj 1454 1762 vline~;
#X obj 1408 1765 *~;
#X obj 1536 1761 bng 19 250 50 0 empty empty empty 0 -10 0 12 #ffe3c6 #000000 #000000;
#X obj 1535 1737 metro 300;
#X obj 1606 1715 random 150;
#X obj 1487 1495 metro 2000;
#X obj 1393 1454 + 2500;
#X obj 1606 1736 + 150;
#X obj 1313 1385 r start-all;
#X msg 1405 1552 48;
#X msg 1368 1552 50;
#X msg 1325 1555 42;
#X msg 1289 1552 53;
#X obj 1303 991 metro 400;
#X obj 1585 984 metro 250;
#X obj 1609 1139 *~ 0.01;
#X text 1526 1382 // Low frequncies + FM;
#X msg 273 630 50;
#X msg 145 631 53;
#X obj 484 233 random 3;
#X obj 1303 933 r start-all;
#X text 116 1158 // reverb;
#X text 576 958 // select scale;
#X text 684 343 // select melody;
#X obj 304 1430 s melody-opacity;
#X text 303 1405 // for Touchdesigner;
#X msg 642 1335 0.2 800;
#X msg 878 56 74;
#X msg 803 53 65;
#X msg 916 54 50;
#X msg 839 53 55;
#X msg 729 1351 1 5500;
#X obj 489 1620 *~ 0.75;
#X msg 1454 1737 2.8 \, 0 100;
#X obj 1409 1795 lop~ 200;
#X text 317 1615 // Delays;
#X msg 179 1221 0.85;
#X text 603 417 The note is first sent to the scales at the right ------->;
#X connect 1 0 203 0;
#X connect 2 0 43 0;
#X connect 3 0 7 1;
#X connect 4 0 7 1;
#X connect 5 0 4 0;
#X connect 6 0 2 0;
#X connect 7 0 8 0;
#X connect 8 0 20 0;
#X connect 9 0 94 0;
#X connect 9 0 105 0;
#X connect 10 0 17 0;
#X connect 11 0 15 1;
#X connect 12 0 15 1;
#X connect 13 0 12 0;
#X connect 14 0 10 0;
#X connect 15 0 16 0;
#X connect 16 0 21 0;
#X connect 17 0 11 0;
#X connect 17 1 11 0;
#X connect 17 2 11 0;
#X connect 17 3 11 0;
#X connect 17 4 11 0;
#X connect 17 5 11 0;
#X connect 17 6 11 0;
#X connect 17 7 13 0;
#X connect 18 0 15 0;
#X connect 18 0 14 0;
#X connect 19 0 7 0;
#X connect 19 0 6 0;
#X connect 22 0 23 0;
#X connect 23 0 1 0;
#X connect 24 0 23 1;
#X connect 25 0 1 0;
#X connect 26 0 25 1;
#X connect 27 0 25 0;
#X connect 28 0 36 0;
#X connect 29 0 33 1;
#X connect 30 0 33 1;
#X connect 31 0 30 0;
#X connect 32 0 28 0;
#X connect 33 0 34 0;
#X connect 34 0 37 0;
#X connect 35 0 33 0;
#X connect 35 0 32 0;
#X connect 36 0 29 0;
#X connect 36 1 29 0;
#X connect 36 2 29 0;
#X connect 36 3 29 0;
#X connect 36 4 29 0;
#X connect 36 5 29 0;
#X connect 36 6 29 0;
#X connect 36 7 31 0;
#X connect 38 0 1 0;
#X connect 39 0 38 1;
#X connect 40 0 38 0;
#X connect 41 0 42 0;
#X connect 41 0 62 0;
#X connect 42 0 95 0;
#X connect 43 0 3 0;
#X connect 43 1 3 0;
#X connect 43 2 3 0;
#X connect 43 3 3 0;
#X connect 43 4 3 0;
#X connect 43 5 3 0;
#X connect 43 6 3 0;
#X connect 43 7 5 0;
#X connect 44 0 45 0;
#X connect 45 0 96 0;
#X connect 47 0 131 0;
#X connect 48 0 100 0;
#X connect 49 0 48 0;
#X connect 50 0 48 0;
#X connect 51 0 49 0;
#X connect 51 0 52 0;
#X connect 52 0 50 0;
#X connect 55 0 103 0;
#X connect 56 0 24 0;
#X connect 57 0 26 0;
#X connect 57 0 39 0;
#X connect 57 0 75 0;
#X connect 57 0 90 0;
#X connect 58 0 26 0;
#X connect 59 0 24 0;
#X connect 59 0 39 0;
#X connect 59 0 75 0;
#X connect 59 0 90 0;
#X connect 60 0 39 0;
#X connect 61 0 26 0;
#X connect 61 0 24 0;
#X connect 61 0 75 0;
#X connect 61 0 90 0;
#X connect 62 0 122 0;
#X connect 63 0 62 1;
#X connect 64 0 72 0;
#X connect 65 0 69 1;
#X connect 66 0 69 1;
#X connect 67 0 66 0;
#X connect 68 0 64 0;
#X connect 69 0 70 0;
#X connect 70 0 73 0;
#X connect 71 0 69 0;
#X connect 71 0 68 0;
#X connect 72 0 65 0;
#X connect 72 1 65 0;
#X connect 72 2 65 0;
#X connect 72 3 65 0;
#X connect 72 4 65 0;
#X connect 72 5 65 0;
#X connect 72 6 65 0;
#X connect 74 0 1 0;
#X connect 75 0 74 1;
#X connect 76 0 74 0;
#X connect 77 0 75 0;
#X connect 78 0 39 0;
#X connect 78 0 26 0;
#X connect 78 0 24 0;
#X connect 78 0 90 0;
#X connect 79 0 87 0;
#X connect 80 0 84 1;
#X connect 81 0 84 1;
#X connect 82 0 81 0;
#X connect 83 0 79 0;
#X connect 84 0 85 0;
#X connect 85 0 88 0;
#X connect 86 0 84 0;
#X connect 86 0 83 0;
#X connect 87 0 80 0;
#X connect 87 1 80 0;
#X connect 87 2 80 0;
#X connect 87 3 80 0;
#X connect 87 4 80 0;
#X connect 87 5 80 0;
#X connect 87 6 80 0;
#X connect 89 0 1 0;
#X connect 90 0 89 1;
#X connect 91 0 89 0;
#X connect 92 0 90 0;
#X connect 93 0 75 0;
#X connect 93 0 39 0;
#X connect 93 0 26 0;
#X connect 93 0 24 0;
#X connect 94 0 41 0;
#X connect 94 0 159 0;
#X connect 95 0 41 1;
#X connect 96 0 106 0;
#X connect 97 0 98 0;
#X connect 97 0 98 1;
#X connect 98 0 99 0;
#X connect 98 0 99 1;
#X connect 99 0 100 1;
#X connect 100 0 213 0;
#X connect 101 0 217 0;
#X connect 101 0 269 0;
#X connect 102 0 271 0;
#X connect 102 0 196 0;
#X connect 102 0 212 0;
#X connect 103 0 56 0;
#X connect 103 0 57 0;
#X connect 103 1 58 0;
#X connect 103 1 59 0;
#X connect 103 2 60 0;
#X connect 103 2 61 0;
#X connect 103 3 77 0;
#X connect 103 3 78 0;
#X connect 103 4 92 0;
#X connect 103 4 93 0;
#X connect 104 0 55 0;
#X connect 105 0 124 0;
#X connect 105 0 139 0;
#X connect 105 0 264 0;
#X connect 106 0 47 0;
#X connect 107 0 102 0;
#X connect 108 0 107 1;
#X connect 109 0 9 0;
#X connect 109 0 63 0;
#X connect 109 0 189 0;
#X connect 112 0 161 0;
#X connect 112 0 94 1;
#X connect 114 0 115 0;
#X connect 115 0 118 0;
#X connect 116 0 133 0;
#X connect 117 0 125 0;
#X connect 117 1 172 0;
#X connect 117 2 126 0;
#X connect 117 3 171 0;
#X connect 117 4 127 0;
#X connect 117 5 185 0;
#X connect 117 6 142 0;
#X connect 117 7 173 0;
#X connect 118 0 119 0;
#X connect 119 0 116 0;
#X connect 120 0 122 1;
#X connect 121 0 123 0;
#X connect 121 0 117 0;
#X connect 121 0 146 0;
#X connect 122 0 121 0;
#X connect 123 0 211 0;
#X connect 123 1 263 0;
#X connect 123 2 210 0;
#X connect 123 3 201 0;
#X connect 123 4 202 0;
#X connect 123 5 262 0;
#X connect 123 6 209 0;
#X connect 123 7 214 0;
#X connect 124 0 120 0;
#X connect 125 0 114 0;
#X connect 126 0 114 0;
#X connect 127 0 114 0;
#X connect 128 0 149 0;
#X connect 129 0 137 0;
#X connect 129 0 138 0;
#X connect 130 0 135 0;
#X connect 130 0 136 0;
#X connect 131 0 46 0;
#X connect 132 0 131 1;
#X connect 133 0 46 0;
#X connect 134 0 133 1;
#X connect 135 0 132 0;
#X connect 136 0 134 0;
#X connect 136 0 154 0;
#X connect 137 0 134 0;
#X connect 138 0 132 0;
#X connect 138 0 154 0;
#X connect 139 0 112 0;
#X connect 142 0 114 0;
#X connect 143 0 144 0;
#X connect 144 0 147 0;
#X connect 145 0 153 0;
#X connect 146 0 190 0;
#X connect 146 1 186 0;
#X connect 146 2 191 0;
#X connect 146 3 187 0;
#X connect 146 4 192 0;
#X connect 146 5 193 0;
#X connect 146 6 188 0;
#X connect 146 7 194 0;
#X connect 147 0 148 0;
#X connect 148 0 145 0;
#X connect 149 0 130 0;
#X connect 149 1 129 0;
#X connect 149 2 150 0;
#X connect 150 0 151 0;
#X connect 150 0 152 0;
#X connect 151 0 154 0;
#X connect 152 0 134 0;
#X connect 152 0 132 0;
#X connect 153 0 46 0;
#X connect 154 0 153 1;
#X connect 155 0 158 0;
#X connect 155 0 165 0;
#X connect 155 0 166 0;
#X connect 156 0 157 0;
#X connect 157 0 48 0;
#X connect 157 0 215 0;
#X connect 158 0 156 0;
#X connect 160 0 258 0;
#X connect 160 0 259 0;
#X connect 160 0 102 0;
#X connect 161 0 258 1;
#X connect 162 0 163 0;
#X connect 163 0 205 0;
#X connect 163 0 260 0;
#X connect 164 0 157 1;
#X connect 164 0 163 1;
#X connect 165 0 162 0;
#X connect 166 0 164 0;
#X connect 168 0 208 0;
#X connect 169 0 184 0;
#X connect 170 0 184 0;
#X connect 171 0 114 0;
#X connect 172 0 114 0;
#X connect 173 0 114 0;
#X connect 174 0 110 0;
#X connect 175 0 111 0;
#X connect 176 0 177 0;
#X connect 177 0 51 0;
#X connect 178 0 176 1;
#X connect 179 0 178 0;
#X connect 179 0 281 0;
#X connect 179 0 182 0;
#X connect 179 0 181 0;
#X connect 180 0 176 0;
#X connect 181 0 176 3;
#X connect 182 0 176 4;
#X connect 185 0 114 0;
#X connect 186 0 143 0;
#X connect 187 0 143 0;
#X connect 188 0 143 0;
#X connect 189 0 104 0;
#X connect 190 0 143 0;
#X connect 191 0 143 0;
#X connect 192 0 143 0;
#X connect 193 0 143 0;
#X connect 194 0 143 0;
#X connect 195 0 107 0;
#X connect 196 0 197 0;
#X connect 197 0 198 0;
#X connect 198 0 195 1;
#X connect 199 0 101 0;
#X connect 200 0 276 0;
#X connect 201 0 44 0;
#X connect 202 0 44 0;
#X connect 203 0 48 0;
#X connect 204 0 184 0;
#X connect 205 0 213 0;
#X connect 206 0 207 0;
#X connect 207 0 169 0;
#X connect 207 0 174 0;
#X connect 208 0 170 0;
#X connect 208 0 175 0;
#X connect 209 0 44 0;
#X connect 210 0 44 0;
#X connect 211 0 44 0;
#X connect 212 0 195 0;
#X connect 212 0 200 0;
#X connect 213 0 277 0;
#X connect 214 0 44 0;
#X connect 215 0 184 0;
#X connect 217 0 97 0;
#X connect 218 0 232 0;
#X connect 219 0 221 0;
#X connect 220 0 231 0;
#X connect 221 0 225 0;
#X connect 222 0 220 0;
#X connect 223 0 219 0;
#X connect 224 0 223 0;
#X connect 224 0 222 0;
#X connect 224 0 218 0;
#X connect 225 0 230 0;
#X connect 226 0 230 0;
#X connect 227 0 228 0;
#X connect 228 0 257 0;
#X connect 228 1 256 0;
#X connect 228 2 255 0;
#X connect 228 3 254 0;
#X connect 229 0 233 0;
#X connect 229 0 248 0;
#X connect 229 0 250 0;
#X connect 230 0 246 0;
#X connect 231 0 226 0;
#X connect 232 0 230 0;
#X connect 233 0 227 0;
#X connect 233 0 234 0;
#X connect 234 0 251 0;
#X connect 235 0 223 1;
#X connect 236 0 223 1;
#X connect 237 0 222 1;
#X connect 238 0 222 1;
#X connect 239 0 222 1;
#X connect 240 0 222 1;
#X connect 241 0 237 0;
#X connect 241 1 238 0;
#X connect 241 2 239 0;
#X connect 241 3 240 0;
#X connect 242 0 235 0;
#X connect 242 1 236 0;
#X connect 243 0 241 0;
#X connect 244 0 242 0;
#X connect 245 0 246 1;
#X connect 246 0 279 0;
#X connect 247 0 278 0;
#X connect 248 0 247 0;
#X connect 248 0 249 0;
#X connect 249 0 252 0;
#X connect 250 0 243 0;
#X connect 250 0 244 0;
#X connect 251 0 233 1;
#X connect 252 0 248 1;
#X connect 253 0 229 0;
#X connect 254 0 224 0;
#X connect 255 0 224 0;
#X connect 256 0 224 0;
#X connect 257 0 224 0;
#X connect 258 0 155 0;
#X connect 259 0 165 0;
#X connect 260 0 204 0;
#X connect 262 0 44 0;
#X connect 263 0 44 0;
#X connect 264 0 128 0;
#X connect 265 0 160 0;
#X connect 271 0 199 0;
#X connect 276 0 199 0;
#X connect 277 0 174 0;
#X connect 277 0 175 0;
#X connect 277 0 184 0;
#X connect 278 0 245 0;
#X connect 279 0 184 0;
#X connect 281 0 176 2;
#X restore 103 7 pd piece02;
#X obj 7 31 cnv 19 735 470 empty empty empty 20 12 0 12 #4e5453 #dfdfdf 0;
#X obj 266 440 dac~, f 7;
#X obj 38 295 r~ RedL;
#X obj 97 295 r~ RedR;
#X obj 38 270 hsl 110 19 0 1 0 0 empty empty empty -2 -10 0 12 #f5f3e6 #464d4b #000000 0 1;
#X obj 304 166 send start-all;
#X obj 308 73 tgl 90 0 empty empty empty 33 45 0 8 #f5f3e6 #464d4b #464d4b 0 1;
#X obj 209 270 hsl 110 19 0 1 0 0 empty empty empty -2 -10 0 12 #f5f3e6 #464d4b #000000 0 1;
#X obj 206 316 *~ 0;
#X obj 287 316 *~ 0;
#X obj 287 293 r~ orangeR;
#X obj 206 293 r~ orangeL;
#N canvas 33 475 969 647 OSCcontrols 0;
#X obj 4 2 cnv 19 500 360 empty empty empty 20 12 0 12 #007777 #404040 0;
#X listbox 24 154 59 0 0 0 - - - 0;
#X floatatom 24 224 8 0 0 0 x - - 0;
#X floatatom 89 284 9 0 0 0 y - - 0;
#X obj 24 247 s x;
#X obj 89 307 s y;
#X floatatom 153 224 7 0 0 0 - - - 0;
#X floatatom 218 285 11 0 0 0 - - - 0;
#X obj 153 247 s chapter1;
#X obj 218 308 s chapter2;
#X floatatom 283 225 11 0 0 0 - - - 0;
#X obj 283 248 s chapter3;
#X floatatom 348 285 11 0 0 0 - - - 0;
#X obj 348 308 s chapter4;
#X obj 24 188 unpack f f f f f f f, f 56;
#X floatatom 412 215 11 0 0 0 - - - 0;
#X obj 412 238 s mainVolume;
#X obj 5 374 cnv 19 950 260 empty empty empty 20 12 0 12 #fec0a3 #404040 0;
#X obj 32 447 r kick-speed;
#X floatatom 32 471 5 0 0 0 - - - 0;
#X floatatom 32 527 5 0 0 0 - - - 0;
#X floatatom 99 528 5 0 0 0 - - - 0;
#N canvas 688 311 858 765 squares 0;
#X obj 123 94 mapGea, f 23;
#X msg 147 65 500;
#X msg 187 65 100;
#X floatatom 171 143 5 0 0 0 - - - 0;
#X obj 27 213 metro 1000;
#X obj 30 285 hsl 162 19 0 16 0 0 empty empty empty -2 -10 0 12 #fcfcfc #000000 #000000 0 1;
#X obj 27 261 counter 2 1 16;
#X obj 27 237 bng 19 250 50 0 empty empty empty 0 -10 0 12 #fcfcfc #000000 #000000;
#X obj 27 167 tgl 19 0 empty empty empty 0 -10 0 12 #fcfcfc #000000 #000000 0 1;
#X obj 242 213 metro 1000;
#X obj 245 285 hsl 162 19 0 16 0 0 empty empty empty -2 -10 0 12 #fcfcfc #000000 #000000 0 1;
#X obj 242 261 counter 2 1 16;
#X obj 242 237 bng 19 250 50 0 empty empty empty 0 -10 0 12 #fcfcfc #000000 #000000;
#X obj 242 309 - 16;
#X obj 242 333 abs;
#X obj 123 10 inlet;
#X obj 27 144 r start-all;
#X obj 125 386 outlet;
#X obj 185 386 outlet;
#X obj 192 28 loadbang;
#X obj 201 170 + 150;
#X msg 229 64 800;
#X obj 557 259 r kick-speed;
#X floatatom 561 296 5 0 0 0 - - - 0;
#X msg 268 63 100;
#X floatatom 242 357 5 0 0 0 - - - 0;
#X connect 0 0 3 0;
#X connect 1 0 0 1;
#X connect 2 0 0 2;
#X connect 3 0 20 0;
#X connect 4 0 7 0;
#X connect 5 0 17 0;
#X connect 6 0 5 0;
#X connect 7 0 6 0;
#X connect 8 0 4 0;
#X connect 8 0 9 0;
#X connect 9 0 12 0;
#X connect 10 0 13 0;
#X connect 11 0 10 0;
#X connect 12 0 11 0;
#X connect 13 0 14 0;
#X connect 14 0 18 0;
#X connect 14 0 25 0;
#X connect 15 0 0 0;
#X connect 16 0 8 0;
#X connect 19 0 1 0;
#X connect 19 0 24 0;
#X connect 19 0 21 0;
#X connect 19 0 2 0;
#X connect 20 0 9 1;
#X connect 21 0 0 3;
#X connect 22 0 23 0;
#X connect 23 0 4 1;
#X connect 24 0 0 4;
#X restore 32 493 pd squares;
#X obj 32 550 s square1;
#X obj 102 550 s square2;
#X obj 234 448 r melody-opacity;
#X floatatom 234 472 5 0 0 0 - - - 0;
#N canvas 1032 175 625 740 melodyOpacity 0;
#X obj 37 37 inlet;
#X floatatom 37 61 5 0 0 0 - - - 0;
#X obj 37 134 mapGea, f 22;
#X msg 144 109 0;
#X floatatom 37 158 5 0 0 0 - - - 0;
#X obj 37 181 outlet;
#X msg 76 109 0.3;
#X msg 108 109 1;
#X msg 178 109 2.5;
#X obj 131 68 bng 19 250 50 0 empty empty empty 0 -10 0 12 #fcfcfc #000000 #000000;
#X obj 129 31 loadbang;
#X obj 293 45 r start-all;
#X connect 0 0 1 0;
#X connect 1 0 2 0;
#X connect 2 0 4 0;
#X connect 3 0 2 3;
#X connect 4 0 5 0;
#X connect 6 0 2 1;
#X connect 7 0 2 2;
#X connect 8 0 2 4;
#X connect 9 0 7 0;
#X connect 9 0 3 0;
#X connect 9 0 8 0;
#X connect 9 0 6 0;
#X connect 10 0 9 0;
#X connect 11 0 9 0;
#X restore 234 495 pd melodyOpacity;
#X floatatom 234 519 5 0 0 0 - - - 0;
#X obj 234 542 s net-opacity;
#X floatatom 434 471 5 0 0 0 - - - 0;
#N canvas 1130 143 625 740 melodyOpacity 0;
#X obj 33 19 inlet;
#X floatatom 33 43 5 0 0 0 - - - 0;
#X obj 33 91 tgl 19 0 empty empty empty 0 -10 0 12 #fcfcfc #000000 #000000 0 1;
#X obj 33 67 > 0;
#X msg 63 142 1;
#X obj 33 115 select 0;
#X obj 185 104 tgl 19 0 empty empty empty 0 -10 0 12 #fcfcfc #000000 #000000 0 1;
#X obj 185 131 metro 50;
#X obj 44 226 vline~ 0 50;
#X obj 44 250 snapshot~;
#X floatatom 44 274 5 0 0 0 - - - 0;
#X obj 44 308 outlet;
#X obj 185 73 r start-all;
#X obj 86 273 - 1;
#X obj 116 272 abs;
#X msg 44 202 \$1 200 \, 0 1300 1000;
#X connect 0 0 1 0;
#X connect 1 0 3 0;
#X connect 2 0 5 0;
#X connect 3 0 2 0;
#X connect 4 0 15 0;
#X connect 5 1 4 0;
#X connect 6 0 7 0;
#X connect 7 0 9 0;
#X connect 8 0 9 0;
#X connect 9 0 10 0;
#X connect 10 0 13 0;
#X connect 12 0 6 0;
#X connect 13 0 14 0;
#X connect 14 0 11 0;
#X connect 15 0 8 0;
#X restore 434 494 pd melodyOpacity;
#X floatatom 434 518 5 0 0 0 - - - 0;
#X obj 434 447 r spectrum;
#X obj 434 541 s notesBeggining;
#X text 25 402 // For Touchsdesigner's visuals \, some extra mapped values;
#X text 198 20 // Receive from Processing;
#X obj 24 47 oscparse;
#X obj 24 21 netreceive -u -b 7001;
#X obj 24 70 route list;
#X obj 24 95 route message;
#X obj 84 125 print TheMessage;
#X obj 515 2 cnv 19 440 360 empty empty empty 20 12 0 12 #e0e0e0 #404040 0;
#X floatatom 607 155 5 0 0 0 - - - 0;
#X floatatom 567 155 5 0 0 0 - - - 0;
#X obj 567 115 r x;
#X obj 607 115 r y;
#X floatatom 784 154 5 0 0 0 - - - 0;
#X obj 536 12 loadbang;
#X floatatom 653 154 5 0 0 0 - - - 0;
#X obj 653 89 r square1;
#X floatatom 693 154 5 0 0 0 - - - 0;
#X obj 693 114 r square2;
#X floatatom 734 154 5 0 0 0 - - - 0;
#X obj 734 88 r net-opacity;
#X obj 784 119 r notesBeggining;
#X obj 842 88 r mainVolume;
#X floatatom 842 154 5 0 0 0 - - - 0;
#X text 647 327 // Send to TouchDesigner;
#X msg 536 46 connect localhost 5001;
#X obj 536 327 netsend -u -b;
#X obj 687 247 list prepend send;
#X obj 687 271 list trim;
#X obj 687 224 oscformat -f f /val1;
#X obj 568 225 metro 10;
#X obj 568 249 bng 19 250 50 0 empty empty empty 0 -10 0 12 #fcfcfc #000000 #000000;
#X obj 568 201 r start-all;
#N canvas 952 0 958 1136 moving 0;
#X obj 50 18 r x;
#X obj 93 19 r y;
#X floatatom 102 87 5 0 0 0 - - - 0;
#X floatatom 48 86 5 0 0 0 - - - 0;
#X obj 58 281 +;
#X obj 117 137 t b f;
#X floatatom 58 305 5 0 0 0 - - - 0;
#X obj 239 379 snapshot~;
#X floatatom 239 403 5 0 0 0 - - - 0;
#X obj 58 494 expr if($f1 != lastposition \, 1 \, 0);
#X obj 239 426 value lastposition;
#X obj 232 264 tgl 19 0 empty empty empty 0 -10 0 12 #fcfcfc #000000 #000000 0 1;
#X obj 58 518 tgl 19 0 empty empty empty 0 -10 0 12 #fcfcfc #000000 #000000 0 1;
#X obj 230 230 r start-all;
#X obj 58 542 send moving;
#X obj 236 315 metro 500;
#X connect 0 0 3 0;
#X connect 1 0 2 0;
#X connect 2 0 5 0;
#X connect 3 0 4 0;
#X connect 4 0 6 0;
#X connect 5 0 4 0;
#X connect 5 1 4 1;
#X connect 6 0 7 0;
#X connect 6 0 9 0;
#X connect 7 0 8 0;
#X connect 8 0 10 0;
#X connect 9 0 12 0;
#X connect 11 0 15 0;
#X connect 12 0 14 0;
#X connect 13 0 11 0;
#X connect 15 0 7 0;
#X restore 650 448 pd moving;
#X obj 853 204 r chapter3;
#X obj 687 201 pack f f f f f f f f;
#X connect 1 0 14 0;
#X connect 2 0 4 0;
#X connect 3 0 5 0;
#X connect 6 0 8 0;
#X connect 7 0 9 0;
#X connect 10 0 11 0;
#X connect 12 0 13 0;
#X connect 14 0 2 0;
#X connect 14 1 3 0;
#X connect 14 2 6 0;
#X connect 14 3 7 0;
#X connect 14 4 10 0;
#X connect 14 5 12 0;
#X connect 14 6 15 0;
#X connect 15 0 16 0;
#X connect 18 0 19 0;
#X connect 19 0 22 0;
#X connect 20 0 23 0;
#X connect 21 0 24 0;
#X connect 22 0 20 0;
#X connect 22 1 21 0;
#X connect 25 0 26 0;
#X connect 26 0 27 0;
#X connect 27 0 28 0;
#X connect 28 0 29 0;
#X connect 30 0 31 0;
#X connect 31 0 32 0;
#X connect 32 0 34 0;
#X connect 33 0 30 0;
#X connect 37 0 39 0;
#X connect 38 0 37 0;
#X connect 39 0 40 0;
#X connect 40 0 1 0;
#X connect 40 0 41 0;
#X connect 43 0 69 1;
#X connect 44 0 69 0;
#X connect 45 0 44 0;
#X connect 46 0 43 0;
#X connect 47 0 69 5;
#X connect 48 0 59 0;
#X connect 49 0 69 2;
#X connect 50 0 49 0;
#X connect 51 0 69 3;
#X connect 52 0 51 0;
#X connect 53 0 69 4;
#X connect 54 0 53 0;
#X connect 55 0 47 0;
#X connect 56 0 57 0;
#X connect 57 0 69 6;
#X connect 59 0 60 0;
#X connect 61 0 62 0;
#X connect 62 0 60 0;
#X connect 63 0 61 0;
#X connect 64 0 65 0;
#X connect 65 0 69 0;
#X connect 66 0 64 0;
#X connect 68 0 69 7;
#X connect 69 0 63 0;
#X restore 517 109 pd OSCcontrols;
#X obj 576 268 hsl 110 19 0 1 0 0 empty empty empty -2 -10 0 12 #f5f3e6 #464d4b #000000 0 1;
#X obj 573 314 *~ 0;
#X obj 654 314 *~ 0;
#X obj 36 224 s redMain;
#X obj 39 318 *~ 0;
#X obj 96 318 *~ 0;
#X obj 35 248 r chapter1;
#X obj 206 221 r chapter2;
#X obj 267 415 *~ 1;
#X obj 312 415 *~ 1;
#X obj 355 415 hsl 100 40 0 1 0 0 empty empty empty -2 -10 0 12 #1c2324 #dfdfdf #000000 0 1;
#X obj 463 415 r start-all;
#X obj 463 434 select 0 1, f 11;
#X msg 463 453 0;
#X msg 500 453 1;
#X obj 393 269 hsl 110 19 0 1 0 0 empty empty empty -2 -10 0 12 #f5f3e6 #464d4b #000000 0 1;
#X obj 390 315 *~ 0;
#X obj 471 315 *~ 0;
#X obj 391 223 r chapter3;
#X obj 573 220 r chapter4;
#X obj 390 292 r~ violetL;
#X obj 471 292 r~ violetR;
#X obj 573 291 r~ blueL;
#X obj 654 291 r~ blueR;
#N canvas -48 179 1920 1146 piece04 0;
#X obj 3 4 cnv 19 1880 1500 empty empty empty 20 12 0 12 #3a4fc2 #404040 0;
#X obj 62 62 tgl 19 0 empty empty empty 0 -10 0 12 #fcfcfc #000000 #000000 0 1;
#X obj 62 86 metro 2000;
#X obj 62 110 bng 19 250 50 0 empty empty empty 0 -10 0 12 #fcfcfc #000000 #000000;
#X obj 62 234 random 8;
#X obj 62 258 sel 0 1 2 3 4 5 6 7, f 45;
#X obj 62 284 bng 19 250 50 0 empty empty empty 0 -10 0 12 #fcfcfc #000000 #000000;
#X obj 101 284 bng 19 250 50 0 empty empty empty 0 -10 0 12 #fcfcfc #000000 #000000;
#X obj 140 284 bng 19 250 50 0 empty empty empty 0 -10 0 12 #fcfcfc #000000 #000000;
#X obj 179 284 bng 19 250 50 0 empty empty empty 0 -10 0 12 #fcfcfc #000000 #000000;
#X obj 218 284 bng 19 250 50 0 empty empty empty 0 -10 0 12 #fcfcfc #000000 #000000;
#X obj 257 284 bng 19 250 50 0 empty empty empty 0 -10 0 12 #fcfcfc #000000 #000000;
#X obj 296 284 bng 19 250 50 0 empty empty empty 0 -10 0 12 #fcfcfc #000000 #000000;
#X obj 335 284 bng 19 250 50 0 empty empty empty 0 -10 0 12 #fcfcfc #000000 #000000;
#X obj 163 682 throw~ delayL;
#X obj 296 682 throw~ delayR;
#X floatatom 256 116 5 0 0 0 - - - 0;
#X obj 245 524 * -1;
#X obj 190 367 mtof;
#X msg 62 308 36;
#X msg 101 309 43;
#X msg 140 309 48;
#X msg 179 310 52;
#X msg 218 311 55;
#X msg 257 312 59;
#X msg 296 312 62;
#X msg 335 313 66;
#X obj 191 551 clip~ 0 0, f 16;
#X obj 300 488 line 0 3;
#X obj 256 68 random 500;
#X obj 477 67 tgl 19 0 empty empty empty 0 -10 0 12 #fcfcfc #000000 #000000 0 1;
#X obj 477 91 metro 2000;
#X obj 477 115 bng 19 250 50 0 empty empty empty 0 -10 0 12 #fcfcfc #000000 #000000;
#X obj 477 239 random 8;
#X obj 477 263 sel 0 1 2 3 4 5 6 7, f 45;
#X obj 477 289 bng 19 250 50 0 empty empty empty 0 -10 0 12 #fcfcfc #000000 #000000;
#X obj 516 289 bng 19 250 50 0 empty empty empty 0 -10 0 12 #fcfcfc #000000 #000000;
#X obj 555 289 bng 19 250 50 0 empty empty empty 0 -10 0 12 #fcfcfc #000000 #000000;
#X obj 594 289 bng 19 250 50 0 empty empty empty 0 -10 0 12 #fcfcfc #000000 #000000;
#X obj 633 289 bng 19 250 50 0 empty empty empty 0 -10 0 12 #fcfcfc #000000 #000000;
#X obj 672 289 bng 19 250 50 0 empty empty empty 0 -10 0 12 #fcfcfc #000000 #000000;
#X obj 711 289 bng 19 250 50 0 empty empty empty 0 -10 0 12 #fcfcfc #000000 #000000;
#X obj 750 289 bng 19 250 50 0 empty empty empty 0 -10 0 12 #fcfcfc #000000 #000000;
#X obj 568 659 throw~ delayL;
#X obj 681 632 *~ 0.5;
#X obj 711 660 throw~ delayR;
#X floatatom 671 121 5 0 0 0 - - - 0;
#X msg 715 444 1 300;
#X obj 769 419 delay 900;
#X msg 769 443 0 1000;
#X obj 660 509 * -1;
#X obj 605 372 mtof;
#X msg 477 313 36;
#X msg 516 314 43;
#X msg 555 314 48;
#X msg 594 315 52;
#X msg 633 316 55;
#X msg 672 317 59;
#X msg 711 317 62;
#X msg 750 318 66;
#X obj 606 556 clip~ 0 0, f 16;
#X obj 715 473 line 0 3;
#X obj 968 62 tgl 19 0 empty empty empty 0 -10 0 12 #fcfcfc #000000 #000000 0 1;
#X obj 968 86 metro 2000;
#X obj 968 110 bng 19 250 50 0 empty empty empty 0 -10 0 12 #fcfcfc #000000 #000000;
#X obj 968 239 random 8;
#X obj 968 263 sel 0 1 2 3 4 5 6 7, f 45;
#X obj 968 289 bng 19 250 50 0 empty empty empty 0 -10 0 12 #fcfcfc #000000 #000000;
#X obj 1007 289 bng 19 250 50 0 empty empty empty 0 -10 0 12 #fcfcfc #000000 #000000;
#X obj 1046 289 bng 19 250 50 0 empty empty empty 0 -10 0 12 #fcfcfc #000000 #000000;
#X obj 1085 289 bng 19 250 50 0 empty empty empty 0 -10 0 12 #fcfcfc #000000 #000000;
#X obj 1124 289 bng 19 250 50 0 empty empty empty 0 -10 0 12 #fcfcfc #000000 #000000;
#X obj 1163 289 bng 19 250 50 0 empty empty empty 0 -10 0 12 #fcfcfc #000000 #000000;
#X obj 1202 289 bng 19 250 50 0 empty empty empty 0 -10 0 12 #fcfcfc #000000 #000000;
#X obj 1241 289 bng 19 250 50 0 empty empty empty 0 -10 0 12 #fcfcfc #000000 #000000;
#X obj 1028 626 *~ 0.5;
#X obj 1058 654 throw~ delayL;
#X obj 1201 655 throw~ delayR;
#X floatatom 1162 116 5 0 0 0 - - - 0;
#X msg 1205 439 1 300;
#X obj 1259 414 delay 900;
#X msg 1259 438 0 1000;
#X obj 1150 504 * -1;
#X obj 1096 367 mtof;
#X msg 968 313 36;
#X msg 1007 314 43;
#X msg 1046 314 48;
#X msg 1085 315 52;
#X msg 1124 316 55;
#X msg 1163 317 59;
#X msg 1202 317 62;
#X msg 1241 318 66;
#X obj 1096 551 clip~ 0 0, f 16;
#X obj 1205 468 line 0 3;
#X obj 119 839 catch~ delayL;
#X obj 119 863 *~ 0.9;
#X obj 119 887 hip~ 600;
#X obj 119 911 lop~ 8000;
#X obj 119 935 delwrite~ delBuffR 650;
#X obj 121 982 delread~ delBuffR 650;
#X obj 368 863 *~ 0.9;
#X obj 368 887 hip~ 600;
#X obj 368 911 lop~ 8000;
#X obj 368 839 catch~ delayR;
#X obj 368 935 delwrite~ delBuffL 650;
#X obj 370 982 delread~ delBuffL 650;
#X obj 367 809 throw~ delayR;
#X obj 120 806 throw~ delayL;
#X obj 1450 62 tgl 19 0 empty empty empty 0 -10 0 12 #fcfcfc #000000 #000000 0 1;
#X obj 1450 86 metro 2000;
#X obj 1450 110 bng 19 250 50 0 empty empty empty 0 -10 0 12 #fcfcfc #000000 #000000;
#X obj 1450 284 bng 19 250 50 0 empty empty empty 0 -10 0 12 #fcfcfc #000000 #000000;
#X obj 1489 284 bng 19 250 50 0 empty empty empty 0 -10 0 12 #fcfcfc #000000 #000000;
#X obj 1567 284 bng 19 250 50 0 empty empty empty 0 -10 0 12 #fcfcfc #000000 #000000;
#X obj 1606 284 bng 19 250 50 0 empty empty empty 0 -10 0 12 #fcfcfc #000000 #000000;
#X obj 1645 284 bng 19 250 50 0 empty empty empty 0 -10 0 12 #fcfcfc #000000 #000000;
#X obj 1529 281 bng 19 250 50 0 empty empty empty 0 -10 0 12 #fcfcfc #000000 #000000;
#X obj 1541 654 throw~ delayL;
#X obj 1684 655 throw~ delayR;
#X floatatom 1644 116 5 0 0 0 - - - 0;
#X msg 1708 441 1 300;
#X obj 1762 416 delay 900;
#X obj 1633 528 * -1;
#X obj 1578 367 mtof;
#X obj 1579 551 clip~ 0 0, f 16;
#X obj 1708 470 line 0 3;
#X obj 840 22 r start-all;
#X obj 160 1183 s~ blueL;
#X obj 257 1179 s~ blueR;
#X msg 855 1327 74;
#X msg 780 1324 65;
#X msg 901 1325 50;
#X msg 816 1324 55;
#X obj 1578 391 osc~;
#X obj 1480 767 tgl 19 0 empty empty empty 0 -10 0 12 #fcfcfc #000000 #000000 0 1;
#X obj 1480 791 metro 2000;
#X obj 1480 815 bng 19 250 50 0 empty empty empty 0 -10 0 12 #fcfcfc #000000 #000000;
#X obj 1480 989 bng 19 250 50 0 empty empty empty 0 -10 0 12 #fcfcfc #000000 #000000;
#X obj 1519 989 bng 19 250 50 0 empty empty empty 0 -10 0 12 #fcfcfc #000000 #000000;
#X obj 1558 989 bng 19 250 50 0 empty empty empty 0 -10 0 12 #fcfcfc #000000 #000000;
#X obj 1597 989 bng 19 250 50 0 empty empty empty 0 -10 0 12 #fcfcfc #000000 #000000;
#X obj 1636 989 bng 19 250 50 0 empty empty empty 0 -10 0 12 #fcfcfc #000000 #000000;
#X obj 1568 1359 throw~ delayL;
#X obj 1711 1360 throw~ delayR;
#X floatatom 1674 821 5 0 0 0 - - - 0;
#X msg 1679 1154 1 300;
#X msg 1733 1153 0 1000;
#X obj 1623 1219 * -1;
#X obj 1569 1087 mtof;
#X msg 1636 1015 55;
#X obj 1569 1253 clip~ 0 0, f 16;
#X obj 1679 1183 line 0 3;
#X obj 1674 797 + 4000;
#X msg 1480 1013 66;
#X msg 1519 1014 55;
#X msg 1558 1014 74;
#X msg 1597 1015 50;
#X obj 1480 963 sel 0 1 2 3 4, f 28;
#X obj 1480 939 random 5;
#X obj 1674 773 random 4000;
#X obj 1569 1111 square~;
#X msg 1762 440 0 4000;
#X obj 1644 92 + 3000;
#X msg 1450 308 38;
#X obj 1096 392 osc~ 200;
#X obj 671 97 + 1000;
#X obj 1162 92 + 1000;
#X obj 1162 68 random 7000;
#X obj 1638 367 mtof;
#X obj 1638 416 osc~;
#X obj 1578 471 *~ 0.5;
#X msg 1728 186 1.01;
#X obj 1644 68 random 7000;
#X floatatom 1753 37 5 0 0 0 - - - 0;
#X msg 1822 185 1.1;
#X floatatom 1516 400 5 0 0 0 - - - 0;
#X obj 1516 423 ftom;
#X floatatom 1516 447 5 0 0 0 - - - 0;
#X msg 1645 311 43;
#X obj 122 1005 *~ 0.6;
#X obj 369 1003 *~ 0.6;
#X obj 538 631 *~ 1.2;
#X obj 1171 627 *~ 1.2;
#X obj 671 74 random 8000;
#X obj 1538 1331 *~ 0.1;
#X obj 1681 1333 *~ 0.1;
#X obj 190 392 osc~;
#X obj 163 650 *~ 0.8;
#X obj 296 652 *~ 0.8;
#X obj 256 92 + 300;
#X obj 1733 1129 delay 700;
#X msg 1489 309 54;
#X msg 1529 309 62;
#X obj 1578 500 lop~ 200;
#X obj 1755 100 select 0 1;
#X msg 1606 311 40;
#X obj 266 628 *~ 1;
#X obj 122 626 *~ 1.2;
#X msg 1778 186 1.2;
#X obj 1755 70 random 2;
#X obj 1638 391 * 1.5;
#X msg 1567 310 39;
#X obj 307 628 hsl 120 19 0 1 0 0 empty empty empty -2 -10 0 12 #fcfcfc #000000 #000000 0 1;
#X obj 1031 948 hsl 100 20 0 1 0 0 empty empty empty 10 10 0 9 #c7c6ff #464d4b #000000 0 1;
#X obj 987 926 mapGea, f 25;
#X obj 1024 881 loadbang;
#X floatatom 987 950 5 0 0 0 - - - 0;
#X obj 1139 949 s melody4-vol;
#X msg 1056 900 1;
#X msg 1099 900 0;
#X obj 570 1042 r blueMain;
#X obj 573 1066 hsl 162 19 0 1 0 0 empty empty empty -2 -10 0 12 #fcfcfc #000000 #000000 0 1;
#X obj 304 594 r melody4-vol;
#X obj 1032 1059 hsl 100 20 0 0.1 0 0 empty empty empty 10 10 0 9 #c7c6ff #464d4b #000000 0 1;
#X obj 988 1037 mapGea, f 25;
#X obj 1025 992 loadbang;
#X floatatom 988 1061 5 0 0 0 - - - 0;
#X msg 1057 1011 1;
#X msg 1100 1011 0;
#X text 1132 989 // melody4.2 vol;
#X text 1159 873 // melody4 vol;
#X obj 1140 1060 s melody4.2-vol, f 16;
#X msg 1131 1011 0.1;
#X obj 1720 1297 r melody4.2-vol;
#X floatatom 570 1090 5 0 0 0 - - - 0;
#X msg 1025 1011 0.2;
#X msg 1024 900 0.5;
#X obj 1450 258 sel 0 1 2 3 4 5, f 34;
#X obj 1450 234 random 6;
#X obj 1035 1177 hsl 100 20 1.01 1.1 0 0 empty empty empty 10 10 0 9 #c7c6ff #464d4b #000000 0 1;
#X obj 991 1155 mapGea, f 28;
#X obj 1028 1110 loadbang;
#X floatatom 991 1179 5 0 0 0 - - - 0;
#X msg 1028 1129 0.2;
#X obj 1143 1178 s fm;
#X obj 1678 366 r fm;
#X msg 1143 1129 1.01;
#X msg 1103 1129 1.1;
#X msg 1060 1129 0.8;
#X msg 355 458 0 400;
#X obj 1510 626 *~ 1.2;
#X obj 1654 627 *~ 1.2;
#X msg 300 459 10 250;
#X obj 354 434 delay 250;
#X obj 1638 440 *~ 0.45;
#X obj 279 354 mtof;
#X obj 279 403 osc~;
#X obj 279 378 * 1.5;
#X obj 319 353 r fm;
#X obj 279 427 *~ 0.45;
#X obj 191 454 pow~ 0.7;
#X obj 191 482 hip~ 3000;
#X obj 605 396 osc~ 200;
#X msg 1130 900 1.25;
#X text 1134 1107 // FM changes;
#X obj 159 1131 *~ 0.75;
#X obj 257 1130 *~ 0.75;
#X text 1724 367 <-- FM changes;
#X connect 1 0 2 0;
#X connect 2 0 3 0;
#X connect 3 0 4 0;
#X connect 3 0 242 0;
#X connect 3 0 29 0;
#X connect 3 0 243 0;
#X connect 4 0 5 0;
#X connect 5 0 6 0;
#X connect 5 1 7 0;
#X connect 5 2 8 0;
#X connect 5 3 9 0;
#X connect 5 4 10 0;
#X connect 5 5 11 0;
#X connect 5 6 12 0;
#X connect 5 7 13 0;
#X connect 6 0 19 0;
#X connect 7 0 20 0;
#X connect 8 0 21 0;
#X connect 9 0 22 0;
#X connect 10 0 23 0;
#X connect 11 0 24 0;
#X connect 12 0 25 0;
#X connect 13 0 26 0;
#X connect 17 0 27 1;
#X connect 18 0 186 0;
#X connect 19 0 18 0;
#X connect 19 0 245 0;
#X connect 20 0 18 0;
#X connect 20 0 245 0;
#X connect 21 0 18 0;
#X connect 21 0 245 0;
#X connect 22 0 18 0;
#X connect 22 0 245 0;
#X connect 23 0 18 0;
#X connect 23 0 245 0;
#X connect 24 0 18 0;
#X connect 24 0 245 0;
#X connect 25 0 18 0;
#X connect 25 0 245 0;
#X connect 26 0 18 0;
#X connect 26 0 245 0;
#X connect 27 0 196 0;
#X connect 27 0 197 0;
#X connect 28 0 17 0;
#X connect 28 0 27 2;
#X connect 29 0 189 0;
#X connect 30 0 31 0;
#X connect 31 0 32 0;
#X connect 32 0 33 0;
#X connect 32 0 47 0;
#X connect 32 0 48 0;
#X connect 32 0 183 0;
#X connect 33 0 34 0;
#X connect 34 0 35 0;
#X connect 34 1 36 0;
#X connect 34 2 37 0;
#X connect 34 3 38 0;
#X connect 34 4 39 0;
#X connect 34 5 40 0;
#X connect 34 6 41 0;
#X connect 34 7 42 0;
#X connect 35 0 52 0;
#X connect 36 0 53 0;
#X connect 37 0 54 0;
#X connect 38 0 55 0;
#X connect 39 0 56 0;
#X connect 40 0 57 0;
#X connect 41 0 58 0;
#X connect 42 0 59 0;
#X connect 44 0 45 0;
#X connect 47 0 61 0;
#X connect 48 0 49 0;
#X connect 49 0 61 0;
#X connect 50 0 60 1;
#X connect 51 0 252 0;
#X connect 52 0 51 0;
#X connect 53 0 51 0;
#X connect 54 0 51 0;
#X connect 55 0 51 0;
#X connect 56 0 51 0;
#X connect 57 0 51 0;
#X connect 58 0 51 0;
#X connect 59 0 51 0;
#X connect 60 0 44 0;
#X connect 60 0 181 0;
#X connect 61 0 50 0;
#X connect 61 0 60 2;
#X connect 62 0 63 0;
#X connect 63 0 64 0;
#X connect 64 0 65 0;
#X connect 64 0 79 0;
#X connect 64 0 80 0;
#X connect 64 0 167 0;
#X connect 65 0 66 0;
#X connect 66 0 67 0;
#X connect 66 1 68 0;
#X connect 66 2 69 0;
#X connect 66 3 70 0;
#X connect 66 4 71 0;
#X connect 66 5 72 0;
#X connect 66 6 73 0;
#X connect 66 7 74 0;
#X connect 67 0 84 0;
#X connect 68 0 85 0;
#X connect 69 0 86 0;
#X connect 70 0 87 0;
#X connect 71 0 88 0;
#X connect 72 0 89 0;
#X connect 73 0 90 0;
#X connect 74 0 91 0;
#X connect 75 0 76 0;
#X connect 79 0 93 0;
#X connect 80 0 81 0;
#X connect 81 0 93 0;
#X connect 82 0 92 1;
#X connect 83 0 164 0;
#X connect 84 0 83 0;
#X connect 85 0 83 0;
#X connect 86 0 83 0;
#X connect 87 0 83 0;
#X connect 88 0 83 0;
#X connect 89 0 83 0;
#X connect 90 0 83 0;
#X connect 91 0 83 0;
#X connect 92 0 75 0;
#X connect 92 0 182 0;
#X connect 93 0 82 0;
#X connect 93 0 92 2;
#X connect 94 0 95 0;
#X connect 95 0 96 0;
#X connect 96 0 97 0;
#X connect 97 0 98 0;
#X connect 99 0 179 0;
#X connect 99 0 255 0;
#X connect 100 0 101 0;
#X connect 101 0 102 0;
#X connect 102 0 104 0;
#X connect 103 0 100 0;
#X connect 105 0 180 0;
#X connect 105 0 256 0;
#X connect 108 0 109 0;
#X connect 109 0 110 0;
#X connect 109 0 199 0;
#X connect 110 0 120 0;
#X connect 110 0 121 0;
#X connect 110 0 172 0;
#X connect 110 0 228 0;
#X connect 111 0 163 0;
#X connect 112 0 191 0;
#X connect 113 0 201 0;
#X connect 114 0 195 0;
#X connect 115 0 178 0;
#X connect 116 0 192 0;
#X connect 120 0 125 0;
#X connect 121 0 161 0;
#X connect 122 0 124 1;
#X connect 123 0 133 0;
#X connect 123 0 175 0;
#X connect 124 0 240 0;
#X connect 124 0 241 0;
#X connect 125 0 122 0;
#X connect 125 0 124 2;
#X connect 126 0 1 0;
#X connect 126 0 30 0;
#X connect 126 0 62 0;
#X connect 126 0 108 0;
#X connect 126 0 134 0;
#X connect 133 0 170 0;
#X connect 134 0 135 0;
#X connect 135 0 136 0;
#X connect 136 0 145 0;
#X connect 136 0 158 0;
#X connect 136 0 159 0;
#X connect 136 0 190 0;
#X connect 137 0 153 0;
#X connect 138 0 154 0;
#X connect 139 0 155 0;
#X connect 140 0 156 0;
#X connect 141 0 149 0;
#X connect 145 0 151 0;
#X connect 146 0 151 0;
#X connect 147 0 150 1;
#X connect 148 0 160 0;
#X connect 149 0 148 0;
#X connect 150 0 184 0;
#X connect 150 0 185 0;
#X connect 151 0 147 0;
#X connect 151 0 150 2;
#X connect 152 0 144 0;
#X connect 152 0 135 1;
#X connect 153 0 148 0;
#X connect 154 0 148 0;
#X connect 155 0 148 0;
#X connect 156 0 148 0;
#X connect 157 0 137 0;
#X connect 157 1 138 0;
#X connect 157 2 139 0;
#X connect 157 3 140 0;
#X connect 157 4 141 0;
#X connect 158 0 157 0;
#X connect 159 0 152 0;
#X connect 160 0 150 0;
#X connect 161 0 125 0;
#X connect 162 0 119 0;
#X connect 162 0 109 1;
#X connect 163 0 123 0;
#X connect 163 0 168 0;
#X connect 164 0 92 0;
#X connect 165 0 46 0;
#X connect 165 0 31 1;
#X connect 166 0 78 0;
#X connect 166 0 63 1;
#X connect 167 0 166 0;
#X connect 168 0 200 0;
#X connect 169 0 244 0;
#X connect 170 0 193 0;
#X connect 172 0 162 0;
#X connect 175 0 176 0;
#X connect 176 0 177 0;
#X connect 178 0 123 0;
#X connect 178 0 168 0;
#X connect 179 0 106 0;
#X connect 180 0 107 0;
#X connect 181 0 43 0;
#X connect 182 0 77 0;
#X connect 183 0 165 0;
#X connect 184 0 142 0;
#X connect 184 0 255 0;
#X connect 185 0 143 0;
#X connect 185 0 256 0;
#X connect 186 0 250 0;
#X connect 187 0 14 0;
#X connect 188 0 15 0;
#X connect 189 0 16 0;
#X connect 189 0 2 1;
#X connect 190 0 146 0;
#X connect 191 0 123 0;
#X connect 191 0 168 0;
#X connect 192 0 123 0;
#X connect 192 0 168 0;
#X connect 193 0 124 0;
#X connect 194 0 171 0;
#X connect 194 1 198 0;
#X connect 195 0 123 0;
#X connect 195 0 168 0;
#X connect 196 0 188 0;
#X connect 196 0 256 0;
#X connect 197 0 187 0;
#X connect 197 0 255 0;
#X connect 199 0 173 0;
#X connect 199 0 194 0;
#X connect 200 0 169 0;
#X connect 201 0 123 0;
#X connect 201 0 168 0;
#X connect 202 0 197 1;
#X connect 202 0 196 1;
#X connect 203 0 207 0;
#X connect 204 0 206 0;
#X connect 205 0 226 0;
#X connect 205 0 208 0;
#X connect 205 0 253 0;
#X connect 205 0 209 0;
#X connect 206 0 203 0;
#X connect 208 0 204 2;
#X connect 209 0 204 3;
#X connect 210 0 211 0;
#X connect 211 0 224 0;
#X connect 211 0 204 0;
#X connect 211 0 214 0;
#X connect 211 0 230 0;
#X connect 212 0 202 0;
#X connect 213 0 221 0;
#X connect 214 0 216 0;
#X connect 215 0 225 0;
#X connect 215 0 217 0;
#X connect 215 0 222 0;
#X connect 215 0 218 0;
#X connect 216 0 213 0;
#X connect 217 0 214 2;
#X connect 218 0 214 3;
#X connect 222 0 214 4;
#X connect 223 0 184 1;
#X connect 223 0 185 1;
#X connect 225 0 214 1;
#X connect 226 0 204 1;
#X connect 227 0 111 0;
#X connect 227 1 112 0;
#X connect 227 2 116 0;
#X connect 227 3 113 0;
#X connect 227 4 114 0;
#X connect 227 5 115 0;
#X connect 228 0 227 0;
#X connect 229 0 234 0;
#X connect 230 0 232 0;
#X connect 231 0 233 0;
#X connect 231 0 238 0;
#X connect 231 0 236 0;
#X connect 231 0 237 0;
#X connect 232 0 229 0;
#X connect 233 0 230 1;
#X connect 235 0 200 1;
#X connect 236 0 230 4;
#X connect 237 0 230 3;
#X connect 238 0 230 2;
#X connect 239 0 28 0;
#X connect 240 0 117 0;
#X connect 240 0 255 0;
#X connect 241 0 118 0;
#X connect 241 0 256 0;
#X connect 242 0 28 0;
#X connect 243 0 239 0;
#X connect 244 0 170 0;
#X connect 245 0 247 0;
#X connect 246 0 249 0;
#X connect 247 0 246 0;
#X connect 248 0 247 1;
#X connect 249 0 250 0;
#X connect 250 0 251 0;
#X connect 251 0 27 0;
#X connect 252 0 60 0;
#X connect 253 0 204 4;
#X connect 255 0 127 0;
#X connect 256 0 128 0;
#X restore 291 7 pd piece04;
#N canvas 141 17 1627 1097 piece03 0;
#X obj 1 1 cnv 19 1600 1095 empty empty empty 20 12 0 12 #6955ae #404040 0;
#X obj 260 457 tgl 19 0 empty empty empty 0 -10 0 12 #fcfcfc #000000 #000000 0 1;
#X obj 189 457 metro 100;
#X obj 131 906 hsl 172 19 0 1 0 0 empty empty empty -2 -10 0 12 #202020 #c7c6ff #000000 0 1;
#N canvas 0 50 450 250 (subpatch) 0;
#X array ticks 157440 float 2;
#X coords 0 1 157440 -1 200 140 1;
#X restore 620 156 graph;
#X obj 39 296 s grain-speed;
#X floatatom 39 175 5 1 500 0 - - - 0;
#X obj 688 58 tgl 19 0 empty empty empty 0 -10 0 12 #fcfcfc #000000 #000000 0 1;
#X obj 712 59 s toggle;
#N canvas 809 60 827 963 insectBass 0;
#X obj 45 88 soundfiler;
#X floatatom 45 111 10 0 0 0 - - - 0;
#X obj 45 144 expr 44100 / $f1;
#X obj 45 175 phasor~;
#X obj 45 204 *~;
#X obj 45 236 snapshot~;
#X msg 45 306 next \$1;
#X obj 45 330 clone grain 16;
#X obj 45 17 inlet;
#X obj 353 157 inlet;
#X obj 407 923 outlet~;
#X obj 617 73 soundfiler;
#X floatatom 617 96 10 0 0 0 - - - 0;
#X obj 617 134 expr 44100 / $f1;
#X obj 617 161 phasor~;
#X obj 617 190 *~;
#X obj 617 226 snapshot~;
#X msg 617 281 next \$1;
#X obj 617 305 clone grain2 16;
#X msg 617 36 read -resize bass.wav bass;
#X msg 45 50 read -resize sparks.wav ticks;
#X obj 298 381 r grain-dur;
#X obj 298 405 select 0;
#X obj 298 453 tgl 19 0 empty empty empty 0 -10 0 12 #fcfcfc #000000 #000000 0 1;
#X msg 298 429 0;
#X msg 350 434 1;
#X obj 69 627 *~;
#X obj 667 643 *~;
#X obj 397 424 bng 19 250 50 0 empty empty empty 0 -10 0 12 #fcfcfc #000000 #000000;
#X obj 70 404 hip~ 3000;
#X floatatom 318 637 5 0 0 0 - - - 0;
#X obj 318 684 tgl 19 0 empty empty empty 0 -10 0 12 #fcfcfc #000000 #000000 0 1;
#X obj 318 708 select 0;
#X obj 69 791 *~;
#X obj 667 807 *~;
#X text 295 575 // select sparks or bass;
#X text 299 356 // automatic start and stop;
#X msg 284 734 1;
#X msg 319 734 0;
#X msg 370 735 1;
#X msg 408 734 0;
#X obj 318 613 r moving;
#X obj 318 660 > 0;
#X obj 207 645 r open;
#X obj 70 482 *~ 10;
#X obj 207 669 bng 19 250 50 0 empty empty empty 0 -10 0 12 #fcfcfc #000000 #000000;
#X obj 667 488 *~ 0.5;
#X connect 0 0 1 0;
#X connect 1 0 2 0;
#X connect 1 0 4 1;
#X connect 2 0 3 0;
#X connect 3 0 4 0;
#X connect 4 0 5 0;
#X connect 5 0 6 0;
#X connect 6 0 7 0;
#X connect 7 0 29 0;
#X connect 8 0 20 0;
#X connect 8 0 19 0;
#X connect 9 0 5 0;
#X connect 9 0 16 0;
#X connect 11 0 12 0;
#X connect 12 0 13 0;
#X connect 12 0 15 1;
#X connect 13 0 14 0;
#X connect 14 0 15 0;
#X connect 15 0 16 0;
#X connect 16 0 17 0;
#X connect 17 0 18 0;
#X connect 18 0 46 0;
#X connect 19 0 11 0;
#X connect 20 0 0 0;
#X connect 21 0 22 0;
#X connect 22 0 24 0;
#X connect 22 1 25 0;
#X connect 22 1 28 0;
#X connect 23 0 26 1;
#X connect 23 0 27 1;
#X connect 24 0 23 0;
#X connect 25 0 23 0;
#X connect 26 0 33 0;
#X connect 27 0 34 0;
#X connect 29 0 44 0;
#X connect 30 0 42 0;
#X connect 31 0 32 0;
#X connect 32 0 37 0;
#X connect 32 0 38 0;
#X connect 32 1 39 0;
#X connect 32 1 40 0;
#X connect 33 0 10 0;
#X connect 34 0 10 0;
#X connect 37 0 33 1;
#X connect 38 0 34 1;
#X connect 39 0 34 1;
#X connect 40 0 33 1;
#X connect 41 0 30 0;
#X connect 42 0 31 0;
#X connect 43 0 31 0;
#X connect 43 0 45 0;
#X connect 44 0 26 0;
#X connect 46 0 27 0;
#X restore 56 476 pd insectBass;
#X f 17;
#X obj 241 681 r~ ambient;
#X obj 1307 352 mtof;
#X obj 1354 326 mtof;
#X obj 1415 326 mtof;
#X obj 1307 375 osc~;
#X obj 1354 350 osc~;
#X obj 1415 349 osc~;
#X msg 1468 236 6;
#X msg 1504 236 7;
#X msg 1540 236 8;
#X obj 1415 302 + 7;
#X obj 1354 302 + 4;
#X msg 1372 236 3;
#X msg 1405 236 4;
#X obj 1468 217 select 0 1 2, f 14;
#X obj 1372 217 select 0 1;
#X obj 1468 178 hradio 19 1 0 3 empty empty empty 0 -10 0 12 #fcfcfc #000000 #000000 0;
#X obj 1372 179 hradio 19 1 0 2 empty empty empty 0 -10 0 12 #fcfcfc #000000 #000000 0;
#X obj 1307 283 f;
#X obj 1354 374 *~ 0.35;
#X obj 1415 373 *~ 0.25;
#X obj 1372 133 random 2;
#X obj 1468 134 random 3;
#X obj 1176 147 select 0 1 2 3;
#X obj 1404 590 s~ ambient;
#X obj 1186 185 bng 19 250 50 0 empty empty empty 0 -10 0 12 #fcfcfc #000000 #000000;
#X obj 1208 185 bng 19 250 50 0 empty empty empty 0 -10 0 12 #fcfcfc #000000 #000000;
#X obj 1229 185 bng 19 250 50 0 empty empty empty 0 -10 0 12 #fcfcfc #000000 #000000;
#X obj 1250 185 bng 19 250 50 0 empty empty empty 0 -10 0 12 #fcfcfc #000000 #000000;
#X obj 1372 66 metro 1000;
#X obj 1457 66 random 100;
#X obj 1457 88 + 1000;
#X obj 1484 325 mtof;
#X obj 1484 348 osc~;
#X obj 1176 96 metro 150;
#X obj 1176 121 counter 2 0 3;
#X obj 1484 372 *~ 0.5;
#X obj 482 621 counter 2 0 100;
#X obj 603 621 / 100;
#X obj 485 644 hsl 155 19 0 1 0 0 empty empty panning 5 10 0 12 #c7c6ff #000000 #000000 0 1;
#X floatatom 604 669 5 0 0 0 R - - 0;
#X obj 481 668 - 1;
#X obj 510 668 abs;
#X floatatom 552 669 5 0 0 0 L - - 0;
#X obj 1420 491 delwrite~ ambient 1000;
#X obj 39 86 tgl 19 0 empty empty empty 0 -10 0 12 #fcfcfc #000000 #000000 0 1;
#X obj 147 174 bng 19 250 50 0 empty empty empty 0 -10 0 12 #fcfcfc #000000 #000000;
#X msg 172 175 0;
#X obj 185 119 bng 19 250 50 0 empty empty empty 0 -10 0 12 #fcfcfc #000000 #000000;
#X obj 1434 516 delread~ ambient 400;
#X obj 1532 541 *~ 0.6;
#X obj 114 565 delwrite~ insect 800;
#X obj 122 588 delread~ insect 500;
#X obj 688 15 r start-all;
#X obj 71 86 spigot;
#X obj 86 1019 s~ violetR;
#X obj 35 1047 s~ violetL;
#X obj 215 887 r violetMain;
#N canvas 0 50 450 250 (subpatch) 0;
#X array bass 720000 float 2;
#X coords 0 1 720000 -1 200 140 1 0 0;
#X restore 622 320 graph;
#X obj 39 117 metro 80;
#X obj 82 173 select 1;
#X obj 56 421 loadbang;
#X msg 711 1050 74;
#X msg 636 1047 65;
#X msg 757 1048 50;
#X msg 672 1047 55;
#X msg 1192 226 55;
#X msg 1231 227 53;
#X msg 1269 234 62;
#X obj 1484 302 + 9;
#X obj 1141 698 mtof;
#X msg 1140 618 74;
#X msg 1065 615 65;
#X msg 1186 616 50;
#X msg 1101 615 55;
#X floatatom 1191 559 5 0 0 0 - - - 0;
#X obj 1223 616 bng 19 250 50 0 empty empty empty 0 -10 0 12 #fcfcfc #000000 #000000;
#X obj 1157 483 tgl 19 0 empty empty empty 0 -10 0 12 #fcfcfc #000000 #000000 0 1;
#X obj 1182 484 spigot;
#X obj 1271 644 bng 19 250 50 0 empty empty empty 0 -10 0 12 #fcfcfc #000000 #000000;
#X obj 1141 794 *~;
#X obj 1195 776 vline~;
#X obj 1173 755 bng 19 250 50 0 empty empty empty 0 -10 0 12 #fcfcfc #000000 #000000;
#X msg 1109 646 74;
#X msg 1035 645 65;
#X msg 1149 645 50;
#X msg 1071 645 55;
#X obj 1070 582 select 0 1 2 3 4 5 6 7;
#X obj 1168 535 random 8;
#X obj 1142 1029 *~;
#X obj 213 609 *~ 0.5;
#X text 780 59 // used in abstractions;
#X obj 758 784 mapGea, f 24;
#X floatatom 267 925 5 0 0 0 - - - 0;
#X obj 801 655 hsl 100 20 30 4 0 0 empty empty slow\ /\ faster 10 10 0 9 #c7c6ff #464d4b #000000 0 1;
#X msg 796 758 4;
#X floatatom 758 808 5 0 0 0 - - - 0;
#X msg 827 758 30;
#X msg 901 758 400;
#X obj 796 739 loadbang;
#X obj 802 807 hsl 122 19 400 150 0 0 empty empty slow\ /\ faster 5 10 0 10 #c7c6ff #000000 #000000 0 1;
#X obj 757 633 mapGea, f 24;
#X obj 794 588 loadbang;
#X floatatom 757 657 5 0 0 0 - - - 0;
#X msg 900 607 4;
#X msg 794 607 0.2;
#X msg 826 607 0.65;
#X obj 476 784 mapGea, f 24;
#X floatatom 476 808 5 0 0 0 - - - 0;
#X obj 512 739 loadbang;
#X msg 588 758 0;
#X msg 543 758 1;
#X obj 522 806 hsl 110 20 0 500 0 0 empty empty grain-dur 10 10 0 9 #c7c6ff #464d4b #000000 0 1;
#X obj 637 807 s grain-dur;
#X text 879 584 // panning speed;
#X text 584 736 // grain duration;
#X msg 869 607 30;
#X obj 1400 756 bng 19 250 50 0 empty empty empty 0 -10 0 12 #fcfcfc #000000 #000000;
#X obj 1400 810 readsf~;
#X obj 1399 885 *~;
#X msg 1400 786 open kick.wav \, 1;
#X obj 1400 702 tgl 19 0 empty empty empty 0 -10 0 12 #fcfcfc #000000 #000000 0 1;
#X obj 1450 866 vline~;
#X obj 1400 728 metro 140;
#X obj 758 929 mapGea, f 25;
#X floatatom 758 953 5 0 0 0 - - - 0;
#X obj 794 884 loadbang;
#X msg 825 903 1;
#X obj 804 951 hsl 110 20 500 100 0 0 empty empty kick\ speed 10 10 0 9 #c7c6ff #464d4b #000000 0 1;
#X obj 919 952 s kick-speed;
#X obj 1472 727 r kick-speed;
#X obj 1398 918 lop~ 400;
#X text 899 880 // kick-speed;
#X msg 903 903 100;
#X msg 794 903 0.3;
#X msg 870 903 500;
#X obj 476 929 mapGea, f 25;
#X floatatom 476 953 5 0 0 0 - - - 0;
#X obj 512 884 loadbang;
#X obj 522 951 hsl 110 20 0 100 0 0 empty empty kick\ vol 10 10 0 9 #c7c6ff #464d4b #000000 0 1;
#X text 603 881 // kick-volume;
#X msg 588 903 0;
#X msg 512 903 0;
#X obj 1399 950 *~ 1;
#X msg 621 903 1;
#X msg 543 903 0.4;
#X obj 639 952 s kick-vol;
#X obj 1464 953 r kick-vol;
#X msg 870 758 150;
#X floatatom 1250 378 5 0 0 0 - - - 0;
#X msg 1155 235 38;
#X text 122 420 // read and load files;
#X text 568 592 // panning;
#X text 267 566 // delays;
#X obj 1399 974 s~ kick3;
#X obj 241 734 r~ kick3;
#X floatatom 543 838 5 0 0 0 - - - 0;
#X text 1427 701 // kick for rythm;
#X obj 482 598 metro 4;
#X obj 35 907 *~;
#X obj 86 907 *~;
#X msg 1450 842 2 10 \, 0 600 10;
#X floatatom 519 976 5 0 0 0 - - - 0;
#X obj 87 970 *~ 1;
#X obj 35 970 *~ 1;
#X obj 1191 645 delay 6000;
#X obj 1162 512 metro 220;
#X obj 39 144 counter 2 1 7;
#X obj 1141 722 square~;
#X floatatom 153 250 5 1 500 0 - - - 0;
#X obj 267 132 tgl 19 0 empty empty empty 0 -10 0 12 #fcfcfc #000000 #000000 0 1;
#X obj 267 102 r moving;
#X obj 292 133 select 0;
#X obj 1403 459 lop~ 200;
#X msg 1195 755 1 50 \, 0 150 50;
#X obj 1142 902 *~ 0.75;
#X obj 1403 431 *~ 1;
#X obj 113 534 lop~ 200;
#X text 264 74 // grain pitch based on slider movement;
#X obj 154 321 s open;
#X obj 154 297 > 1;
#X text 38 53 // automatic grain pitch variance;
#X obj 147 200 delay 8500;
#X obj 271 176 metro 90;
#X obj 267 210 counter 2 2 7;
#X msg 365 134 1;
#X msg 512 758 0.4;
#X msg 619 758 200;
#X text 187 477 // here happens the grain;
#X text 126 969 // receive panning;
#X text 1041 187 // low-freq melody;
#X text 858 738 // low-freq melody speed;
#X text 1043 511 // main notes;
#X text 1376 34 // make a random chord;
#X obj 57 834 *~ 0.5;
#X connect 1 0 2 0;
#X connect 2 0 9 1;
#X connect 3 0 103 0;
#X connect 3 0 169 1;
#X connect 3 0 170 1;
#X connect 6 0 190 0;
#X connect 6 0 179 0;
#X connect 7 0 8 0;
#X connect 9 0 204 0;
#X connect 10 0 187 0;
#X connect 10 0 204 0;
#X connect 11 0 14 0;
#X connect 11 0 159 0;
#X connect 12 0 15 0;
#X connect 13 0 16 0;
#X connect 14 0 186 0;
#X connect 15 0 29 0;
#X connect 16 0 30 0;
#X connect 17 0 20 1;
#X connect 18 0 20 1;
#X connect 19 0 20 0;
#X connect 20 0 13 0;
#X connect 21 0 12 0;
#X connect 22 0 21 1;
#X connect 23 0 21 1;
#X connect 24 0 17 0;
#X connect 24 1 18 0;
#X connect 24 2 19 0;
#X connect 25 0 22 0;
#X connect 25 1 23 0;
#X connect 26 0 24 0;
#X connect 27 0 25 0;
#X connect 28 0 21 0;
#X connect 28 0 20 0;
#X connect 28 0 11 0;
#X connect 28 0 79 0;
#X connect 29 0 186 0;
#X connect 30 0 186 0;
#X connect 31 0 27 0;
#X connect 32 0 26 0;
#X connect 33 0 35 0;
#X connect 33 1 36 0;
#X connect 33 2 37 0;
#X connect 33 3 38 0;
#X connect 35 0 160 0;
#X connect 36 0 76 0;
#X connect 37 0 77 0;
#X connect 38 0 78 0;
#X connect 39 0 31 0;
#X connect 39 0 32 0;
#X connect 39 0 40 0;
#X connect 40 0 41 0;
#X connect 41 0 39 1;
#X connect 42 0 43 0;
#X connect 43 0 46 0;
#X connect 44 0 45 0;
#X connect 45 0 33 0;
#X connect 46 0 186 0;
#X connect 47 0 48 0;
#X connect 48 0 49 0;
#X connect 49 0 50 0;
#X connect 49 0 51 0;
#X connect 50 0 173 1;
#X connect 51 0 52 0;
#X connect 52 0 53 0;
#X connect 53 0 174 1;
#X connect 55 0 69 0;
#X connect 56 0 57 0;
#X connect 56 0 192 0;
#X connect 57 0 55 0;
#X connect 58 0 64 0;
#X connect 59 0 60 0;
#X connect 59 0 34 0;
#X connect 60 0 54 0;
#X connect 62 0 100 0;
#X connect 63 0 7 0;
#X connect 63 0 88 1;
#X connect 63 0 1 0;
#X connect 63 0 44 0;
#X connect 63 0 39 0;
#X connect 63 0 87 0;
#X connect 63 0 131 0;
#X connect 63 0 168 0;
#X connect 63 0 55 0;
#X connect 63 0 64 1;
#X connect 64 0 55 0;
#X connect 67 0 3 0;
#X connect 69 0 177 0;
#X connect 70 0 56 0;
#X connect 71 0 9 0;
#X connect 76 0 28 0;
#X connect 77 0 28 0;
#X connect 78 0 28 0;
#X connect 79 0 42 0;
#X connect 80 0 92 0;
#X connect 80 0 178 0;
#X connect 81 0 80 0;
#X connect 82 0 80 0;
#X connect 83 0 80 0;
#X connect 83 0 86 0;
#X connect 84 0 80 0;
#X connect 85 0 97 0;
#X connect 86 0 87 0;
#X connect 86 0 175 0;
#X connect 87 0 176 0;
#X connect 88 0 87 0;
#X connect 89 0 88 0;
#X connect 90 0 185 0;
#X connect 91 0 90 1;
#X connect 92 0 184 0;
#X connect 93 0 80 0;
#X connect 94 0 80 0;
#X connect 95 0 80 0;
#X connect 95 0 86 0;
#X connect 96 0 80 0;
#X connect 96 0 86 0;
#X connect 97 0 82 0;
#X connect 97 1 84 0;
#X connect 97 2 81 0;
#X connect 97 3 83 0;
#X connect 97 4 94 0;
#X connect 97 5 96 0;
#X connect 97 6 93 0;
#X connect 97 7 95 0;
#X connect 98 0 85 0;
#X connect 99 0 54 0;
#X connect 99 0 34 0;
#X connect 100 0 61 0;
#X connect 100 0 204 0;
#X connect 102 0 106 0;
#X connect 103 0 111 0;
#X connect 103 0 117 0;
#X connect 103 0 134 0;
#X connect 103 0 146 0;
#X connect 103 0 99 1;
#X connect 104 0 102 0;
#X connect 104 0 168 1;
#X connect 105 0 102 1;
#X connect 106 0 44 1;
#X connect 106 0 110 0;
#X connect 107 0 102 2;
#X connect 108 0 102 4;
#X connect 109 0 105 0;
#X connect 109 0 107 0;
#X connect 109 0 158 0;
#X connect 109 0 108 0;
#X connect 111 0 113 0;
#X connect 112 0 115 0;
#X connect 112 0 116 0;
#X connect 112 0 114 0;
#X connect 112 0 126 0;
#X connect 113 0 104 0;
#X connect 114 0 111 4;
#X connect 115 0 111 1;
#X connect 116 0 111 2;
#X connect 117 0 118 0;
#X connect 118 0 122 0;
#X connect 119 0 196 0;
#X connect 119 0 121 0;
#X connect 119 0 197 0;
#X connect 119 0 120 0;
#X connect 120 0 117 3;
#X connect 121 0 117 2;
#X connect 122 0 123 0;
#X connect 122 0 166 0;
#X connect 126 0 111 3;
#X connect 127 0 130 0;
#X connect 127 0 171 0;
#X connect 128 0 129 0;
#X connect 129 0 141 0;
#X connect 130 0 128 0;
#X connect 131 0 133 0;
#X connect 132 0 129 1;
#X connect 133 0 127 0;
#X connect 134 0 135 0;
#X connect 135 0 138 0;
#X connect 136 0 144 0;
#X connect 136 0 137 0;
#X connect 136 0 143 0;
#X connect 136 0 145 0;
#X connect 137 0 134 2;
#X connect 138 0 139 0;
#X connect 140 0 133 1;
#X connect 141 0 153 0;
#X connect 143 0 134 4;
#X connect 144 0 134 1;
#X connect 145 0 134 3;
#X connect 146 0 147 0;
#X connect 147 0 149 0;
#X connect 148 0 152 0;
#X connect 148 0 155 0;
#X connect 148 0 154 0;
#X connect 148 0 151 0;
#X connect 149 0 156 0;
#X connect 149 0 172 0;
#X connect 151 0 146 3;
#X connect 152 0 146 1;
#X connect 153 0 164 0;
#X connect 154 0 146 4;
#X connect 155 0 146 2;
#X connect 157 0 153 1;
#X connect 158 0 102 3;
#X connect 160 0 28 0;
#X connect 165 0 187 0;
#X connect 165 0 204 0;
#X connect 168 0 47 0;
#X connect 169 0 174 0;
#X connect 170 0 173 0;
#X connect 171 0 132 0;
#X connect 173 0 65 0;
#X connect 174 0 66 0;
#X connect 175 0 89 0;
#X connect 176 0 98 0;
#X connect 177 0 6 0;
#X connect 177 0 70 0;
#X connect 178 0 90 0;
#X connect 179 0 5 0;
#X connect 180 0 182 0;
#X connect 180 0 193 0;
#X connect 181 0 180 0;
#X connect 182 0 195 0;
#X connect 183 0 54 0;
#X connect 183 0 34 0;
#X connect 184 0 91 0;
#X connect 185 0 99 0;
#X connect 186 0 183 0;
#X connect 186 0 187 0;
#X connect 187 0 61 0;
#X connect 190 0 189 0;
#X connect 192 0 58 0;
#X connect 193 0 194 0;
#X connect 194 0 179 0;
#X connect 196 0 117 1;
#X connect 197 0 117 4;
#X connect 204 0 169 0;
#X connect 204 0 170 0;
#X restore 197 7 pd piece03;
#X obj 390 247 s violetMain;
#X obj 207 246 s orangeMain;
#X obj 353 461 r mainVolume;
#X obj 573 246 s blueMain;
#X text 205 76 Start all -->;
#X text 387 7 <-- Patches of chapters;
#X connect 4 0 19 0;
#X connect 5 0 20 0;
#X connect 6 0 18 0;
#X connect 6 0 19 1;
#X connect 6 0 20 1;
#X connect 8 0 7 0;
#X connect 9 0 10 1;
#X connect 9 0 11 1;
#X connect 9 0 42 0;
#X connect 10 0 23 0;
#X connect 11 0 24 0;
#X connect 12 0 11 0;
#X connect 13 0 10 0;
#X connect 15 0 16 1;
#X connect 15 0 17 1;
#X connect 15 0 44 0;
#X connect 16 0 23 0;
#X connect 17 0 24 0;
#X connect 19 0 23 0;
#X connect 20 0 24 0;
#X connect 21 0 6 0;
#X connect 22 0 9 0;
#X connect 23 0 3 0;
#X connect 24 0 3 1;
#X connect 25 0 23 1;
#X connect 25 0 24 1;
#X connect 26 0 27 0;
#X connect 27 0 28 0;
#X connect 27 1 29 0;
#X connect 28 0 25 0;
#X connect 29 0 25 0;
#X connect 30 0 31 1;
#X connect 30 0 32 1;
#X connect 30 0 41 0;
#X connect 31 0 23 0;
#X connect 32 0 24 0;
#X connect 33 0 30 0;
#X connect 34 0 15 0;
#X connect 35 0 31 0;
#X connect 36 0 32 0;
#X connect 37 0 16 0;
#X connect 38 0 17 0;
#X connect 43 0 25 0;
